<svg xmlns="http://www.w3.org/2000/svg" viewBox="0 0 397 397"><defs><style>.cls-1{fill:#b5b5b5;}.cls-2{fill:#ccae7e;}.cls-3{fill:#e0cfb4;}.cls-4{fill:#fceacc;}.cls-5{fill:#ebcd9d;}.cls-6{fill:#f2d29d;}.cls-7{fill:#70040c;}.cls-8{fill:#8f0007;}</style></defs><g id="Ebene_10" data-name="Ebene 10"><circle class="cls-1" cx="198.5" cy="198.5" r="198.5"/></g><g id="Ebene_8" data-name="Ebene 8"><ellipse class="cls-2" cx="191.65" cy="179.57" rx="73.25" ry="108.75"/></g><g id="Ebene_3" data-name="Ebene 3"><g id="Ebene_7" data-name="Ebene 7"><rect class="cls-3" x="180.35" y="181.98" width="34" height="39" rx="3.69"/></g><ellipse class="cls-4" cx="198.5" cy="119.38" rx="59" ry="74.5"/></g><g id="Ebene_4" data-name="Ebene 4"><path class="cls-5" d="M339.11,140.27c-32-12.18-38.15-54.44-21.92-59.9,29.83-10,48.27,6.31,70.26,32.56,28,33.45,11.26,162.65-.85,174.76S379,155.44,339.11,140.27Z" transform="translate(-131.1 -60.43)"/><g id="Ebene_6" data-name="Ebene 6"><path class="cls-6" d="M242.85,156.39c14-59,51.59-79.91,70.52-76,40.68,8.32-11.11,55.33-36.12,85.45-27.8,33.49,12.89,156.41-4.75,148.52S234.79,190.31,242.85,156.39Z" transform="translate(-131.1 -60.43)"/></g></g><g id="Ebene_11" data-name="Ebene 11"><path class="cls-7" d="M241,328.54c0-53.54,14.91-55.64,28.61-56.29,51.76-2.45,25.67,2.75,25.67,56.29s-1,105-14.73,105S241,382.08,241,328.54Z" transform="translate(-131.1 -60.43)"/><path class="cls-7" d="M414.73,328.54c0-53.54-14.91-55.64-28.61-56.29-51.76-2.45-25.67,2.75-25.67,56.29s1,105,14.73,105S414.73,382.08,414.73,328.54Z" transform="translate(-131.1 -60.43)"/></g><g id="Ebene_13" data-name="Ebene 13"><path class="cls-8" d="M267.6,421V300.56a28.79,28.79,0,0,1,28.79-28.79h66.42a28.79,28.79,0,0,1,28.79,28.79V421c0,15.9-7.63,30.41-25.29,32.79,0,0-23.4,4.44-36.71,3.54-13.62.71-34.46-2.54-34.46-2.54C279.05,453.68,267.6,436.88,267.6,421Z" transform="translate(-131.1 -60.43)"/></g></svg>