<?xml version="1.0" encoding="utf-8"?>
<!-- Generator: Adobe Adobe Illustrator 24.2.0, SVG Export Plug-In . SVG Version: 6.00 Build 0)  -->
<svg version="1.1" xmlns="http://www.w3.org/2000/svg" xmlns:xlink="http://www.w3.org/1999/xlink" x="0px" y="0px" width="480px"
	 height="480px" viewBox="105 200 300 400" style="enable-background:new 0 0 480 640;" xml:space="preserve">
<style type="text/css">
	.st0{fill:#6B6B6B;}
	.st1{fill:#8F0007;}
	.st2{fill:#70040C;}
	.st3{fill:#FCEACC;}
	.st4{fill:#919951;}
	.st5{fill:#6A703B;}
	.st6{fill:#E3D8BC;}
	.st7{fill:#F2E8CF;}
	.st8{fill:#EB5D47;}
	.st9{fill:#BEC76B;}
	.st10{fill:#4A3D28;}
	.st11{fill:#4F4D4D;}
</style>
<g id="Ebene_11">
	<g id="Ebene_17">
		<path class="st0" d="M265.26,501.2v-59.7c0-0.91,0.74-1.65,1.65-1.65l0,0c0.91,0,1.65,0.74,1.65,1.65v59.7
			c0,0.91-0.74,1.65-1.65,1.65l0,0C265.99,502.85,265.26,502.11,265.26,501.2z"/>
		<path class="st0" d="M199.92,501.2v-59.7c0-0.91,0.74-1.65,1.65-1.65h0c0.91,0,1.65,0.74,1.65,1.65v59.7
			c0,0.91-0.74,1.65-1.65,1.65h0C200.66,502.85,199.92,502.11,199.92,501.2z"/>
	</g>
	<path class="st1" d="M193.57,435.89V424.6c0-3.51,2.85-6.36,6.36-6.36h66.28c3.51,0,6.36,2.85,6.36,6.36v11.28
		c0,3.51-2.85,6.36-6.36,6.36h-66.28C196.41,442.24,193.57,439.4,193.57,435.89z"/>
	<path class="st2" d="M200.02,418.21v-73.89c0-9.45,7.66-17.11,17.11-17.11h33.64c8.91,0,16.14,7.22,16.14,16.14v74.86H200.02z"/>
</g>
<g id="Ebene_14">
	<path class="st3" d="M163.55,469.61l-0.23-2.08c-0.26-2.27,0.6-4.85,2.36-7.1l9.06-11.61c0.76-0.97,2.1-1.24,2.68-0.54l3.36,4.05
		c1.56,1.88,0.71,5.15-1.88,7.3l-12.58,10.43C165.16,471.01,163.68,470.77,163.55,469.61z"/>
	<path class="st3" d="M218.76,494.44v-12.8c0-2.32,1.35-4.2,3.01-4.2h2.47c1.66,0,3.01,1.88,3.01,4.2v12.8
		c0.19,4.65-3.58,6.84-3.58,6.84C221.19,502.47,218.76,496.76,218.76,494.44z"/>
</g>
<g id="Ebene_15">
	<rect x="129.73" y="369.59" class="st4" width="43.28" height="11"/>
	<polygon class="st5" points="129.73,380.59 173.01,380.59 173.01,369.59 	"/>
</g>
<g id="Ebene_10">
	<polygon class="st4" points="211.43,398.3 201.57,328.39 264.57,328.39 256.19,400.39 	"/>
</g>
<g id="Ebene_12">
	<g id="Ebene_13">
		<polygon class="st6" points="219.27,479.86 204.26,418.36 226.76,418.36 226.76,479.36 		"/>
	</g>
	<path class="st7" d="M181.33,453.46l-6.79-3.5c-0.42-0.22-0.58-0.74-0.36-1.15l7.43-13.74l18.95-32.5c0,0,2.18-3.84,6.04-4.5
		c9.97-1.71,39.26-3.98,50.08,1c2.98,1.37,3.87,11.72,1.25,17.5c-3.04,6.69-44.58,4.25-44.58,4.25l-14.93,17.25l-16.75,15.34
		C181.59,453.49,181.45,453.52,181.33,453.46z"/>
</g>
<g id="Ebene_3">
	<path class="st8" d="M107.69,384.71L107.69,384.71c0-2.21,1.79-4,4-4h244c2.21,0,4,1.79,4,4l0,0c0,2.21-1.79,4-4,4h-244
		C109.48,388.71,107.69,386.92,107.69,384.71z"/>
	<rect x="330.73" y="387.85" class="st1" width="8" height="115"/>
	<rect x="125.73" y="387.85" class="st1" width="8" height="115"/>
</g>
<g id="Ebene_9">
	<path class="st3" d="M209.61,380.59v-5.06c0-0.8,0.64-1.44,1.44-1.44l7.74,1.57c1.93,0.39,3.32,2.09,3.32,4.06l0,0
		c0,0.48-0.39,0.86-0.86,0.86H209.61z"/>
	<path class="st3" d="M257.94,380.59v-5.06c0-0.8-0.64-1.44-1.44-1.44l-7.74,1.57c-1.93,0.39-3.32,2.09-3.32,4.06l0,0
		c0,0.48,0.39,0.86,0.86,0.86H257.94z"/>
</g>
<g id="Ebene_8">
	<path class="st9" d="M186.93,378.41v-3.73c0-2.81,2.28-5.09,5.09-5.09l16.96,3.63c1.02,0.22,1.79,1.07,1.89,2.11l0.55,5.26h-22.32
		C187.9,380.59,186.93,379.61,186.93,378.41z"/>
	<path class="st9" d="M280.69,378.41v-3.73c0-2.81-2.28-5.09-5.09-5.09l-16.96,3.63c-1.02,0.22-1.79,1.07-1.89,2.11l-0.55,5.26
		h22.32C279.72,380.59,280.69,379.61,280.69,378.41z"/>
</g>
<g id="Ebene_5">
	<path class="st10" d="M209.69,310.92c0-25.13,9.6-35.61,27-35.61s23,18.09,23,43.5c0,25.13-7.1,48-24.5,48
		S209.69,336.05,209.69,310.92z"/>
	<g id="Ebene_4">
		<ellipse class="st3" cx="233.69" cy="301.31" rx="23" ry="26"/>
	</g>
	<path class="st10" d="M219.85,280.14c5.56-6.69,25.43-6.69,31.19,0.73c3.05,3.93,8.49,13.63,6.45,23.79
		c-1.75,8.7-5.73,1.44-11.57-7.73C239.6,287.01,214.73,286.31,219.85,280.14z"/>
	<path class="st10" d="M209.69,309.81c-0.53-4.29,1.54-22.22,7.51-27.2c5.79-4.82,6.03-2.8,8.89,0.29c2.86,3.09,2.91,4.98-3.92,9.09
		C216.61,295.33,210.15,313.47,209.69,309.81z"/>
</g>
<g id="Ebene_6">
	<path class="st0" d="M188.69,367.5v-55.84c0-2.53,2.05-4.58,4.58-4.58h82.84c2.53,0,4.58,2.05,4.58,4.58v55.84
		c0,2.53-2.05,4.58-4.58,4.58h-82.84C190.74,372.08,188.69,370.03,188.69,367.5z"/>
	<g id="Ebene_18">
		<path class="st11" d="M222.19,372.08l-17.36-46.37c-0.72-1.91,0.69-3.95,2.74-3.95h54.02c2.13,0,3.6,2.15,2.82,4.14l-17.22,46.18
			H222.19z"/>
	</g>
	<g id="Ebene_7">
		<path d="M222.19,381.57v-35.74c0-2.05,1.67-3.72,3.72-3.72h17.52c2.08,0,3.76,1.68,3.76,3.76v35.7H222.19z"/>
	</g>
</g>
<g id="Ebene_19">
	<path class="st11" d="M300.68,381.13v-15.61c0-0.68,0.55-1.23,1.23-1.23h11.99c0.98,0,1.78,0.8,1.78,1.78v15.06H300.68z"/>
	<path class="st11" d="M315.71,367.53v0.9h4.71l0.07,8.47l-4.81,0.09c0,0,0,0.4,0,0.8l0.01,0c0.01,0,0.02,0.01,0.03,0.01
		c0,0,0-0.01,0-0.01l5.42,0.1l0.05-10.35H315.71z"/>
	<g id="Ebene_16">
		<path class="st0" d="M300.68,365.38v15.74h15l-14.27-16.02C301.16,364.82,300.68,365,300.68,365.38z"/>
	</g>
</g>
<g id="Ebene_20">
	<ellipse class="st9" cx="326.6" cy="274.09" rx="25.89" ry="26.97"/>
	<g id="Ebene_23">
		<ellipse class="st4" cx="326.6" cy="274.09" rx="11.06" ry="11.39"/>
	</g>
	<g id="Ebene_21">
		<g>

				<rect x="325.94" y="288.13" transform="matrix(-1 -1.224647e-16 1.224647e-16 -1 653.1962 589.2151)" width="1.31" height="12.96"/>

				<rect x="311.43" y="282.12" transform="matrix(-0.7071 -0.7071 0.7071 -0.7071 328.6984 713.3448)" width="1.31" height="12.96"/>
			<rect x="305.42" y="267.61" transform="matrix(6.123234e-17 -1 1 6.123234e-17 31.9899 580.1665)" width="1.31" height="12.96"/>
			<rect x="311.43" y="253.1" transform="matrix(0.7071 -0.7071 0.7071 0.7071 -92.1417 296.7083)" width="1.31" height="12.96"/>
			<rect x="325.94" y="247.09" width="1.31" height="12.96"/>
			<rect x="340.45" y="253.1" transform="matrix(0.7071 0.7071 -0.7071 0.7071 283.4579 -165.1698)" width="1.31" height="12.96"/>

				<rect x="346.46" y="267.61" transform="matrix(-1.836970e-16 1 -1 -1.836970e-16 621.2046 -73.0281)" width="1.31" height="12.96"/>

				<rect x="340.45" y="282.12" transform="matrix(-0.7071 0.7071 -0.7071 -0.7071 786.3744 251.4677)" width="1.31" height="12.96"/>
		</g>
	</g>
	<g id="Ebene_22">
		<rect x="322.97" y="253" transform="matrix(0.9607 -0.2777 0.2777 0.9607 -60.5772 100.2276)" width="1.26" height="22"/>

			<rect x="331.72" y="267.68" transform="matrix(-1.836970e-16 1 -1 -1.836970e-16 606.4664 -58.2899)" width="1.31" height="12.82"/>
	</g>
</g>
<g id="Ebene_24">
	<path class="st5" d="M371.64,389.88c0,0-6.39,19.15-8.67,25.5c-7.01,19.55-4.23,40.4-4.23,40.4c-0.84,4.29,1.7,7.8,5.33,7.37h0
		c7.91-0.94,18.37-0.89,16.8-13.8c0,0,1.78-21.22-0.53-40.29c-0.65-5.4-7.03-19.37-7.03-19.37
		C373.22,388.58,371.86,388.74,371.64,389.88z"/>
	<path class="st4" d="M388.1,408.1c0,0,3.09,19.47,4.27,25.93c3.64,19.91-2.68,40.45-2.68,40.45c0.1,4.32-3.02,7.64-6.55,6.97h0
		c-7.71-1.47-18.11-2.12-14.35-14.85c0,0,1.85-21.22,7.39-40.02c1.57-5.32,10.29-18.79,10.29-18.79
		C386.75,406.71,388.08,406.96,388.1,408.1z"/>
	<path class="st4" d="M357.91,404.69c0,0-3.09,19.47-4.27,25.93c-3.64,19.91,2.68,40.45,2.68,40.45c-0.1,4.32,3.02,7.64,6.55,6.97h0
		c7.71-1.47,18.11-2.12,14.35-14.85c0,0-1.85-21.22-7.39-40.02c-1.57-5.32-10.29-18.79-10.29-18.79
		C359.26,403.3,357.94,403.55,357.91,404.69z"/>
	<path class="st9" d="M347.19,425.63c0,0-1.38,12.36-1.98,16.45c-1.84,12.62,5.31,25.92,5.31,25.92c0.22,2.76,3.26,4.97,6.39,4.64h0
		c6.83-0.72,16.13-0.84,11.84-9.08c0,0-3.19-13.61-9.53-25.78c-1.8-3.45-10.6-12.3-10.6-12.3
		C348.31,424.77,347.14,424.9,347.19,425.63z"/>
	<path class="st9" d="M400.41,426.67c0,0,1.38,12.36,1.98,16.45c1.84,12.62-5.31,25.92-5.31,25.92c-0.22,2.76-3.26,4.97-6.39,4.64
		l0,0c-6.83-0.72-16.13-0.84-11.84-9.08c0,0,3.19-13.61,9.53-25.78c1.8-3.45,10.6-12.3,10.6-12.3
		C399.3,425.82,400.47,425.94,400.41,426.67z"/>
	<path class="st7" d="M348.6,490.68v-17.66c0-0.19,0.15-0.34,0.34-0.34h50.38c0.19,0,0.34,0.15,0.34,0.34v19.04
		c0,5.14-4.16,9.3-9.3,9.3h-31.08C353.39,501.36,348.6,496.58,348.6,490.68z"/>
	<path class="st8" d="M344.92,471.17v-2.66c0-0.83,0.67-1.5,1.5-1.5h55.43c0.83,0,1.5,0.67,1.5,1.5v2.66c0,0.83-0.67,1.5-1.5,1.5
		h-55.43C345.59,472.67,344.92,472,344.92,471.17z"/>
</g>
<g id="Ebene_25">
</g>
</svg>
