<?xml version="1.0" encoding="utf-8"?>
<!-- Generator: Adobe Adobe Illustrator 24.2.0, SVG Export Plug-In . SVG Version: 6.00 Build 0)  -->
<svg version="1.1" xmlns="http://www.w3.org/2000/svg" xmlns:xlink="http://www.w3.org/1999/xlink" x="0px" y="0px" width="480px"
	 height="640px" viewBox="0 0 480 640" style="enable-background:new 0 0 480 640;" xml:space="preserve">
<style type="text/css">
	.st0{display:none;}
	.st1{display:inline;}
	.st2{stroke:#000000;stroke-miterlimit:10;}
	.st3{fill:#EDEDED;}
	.st4{opacity:0.4;fill:#ADADAD;}
	.st5{fill:#FFFFFF;}
	.st6{fill:#BEC76B;}
	.st7{fill:#6A703B;}
</style>
<g id="Ebene_10" class="st0">
	<g class="st1">
		
			<ellipse transform="matrix(0.8984 -0.4392 0.4392 0.8984 -13.398 49.8173)" class="st2" cx="100.97" cy="53.86" rx="7.38" ry="0.74"/>
		
			<ellipse transform="matrix(0.9854 -0.1704 0.1704 0.9854 -4.8811 23.9401)" class="st2" cx="137.01" cy="40.4" rx="7.38" ry="0.74"/>
		
			<ellipse transform="matrix(0.112 -0.9937 0.9937 0.112 118.4231 207.6355)" class="st2" cx="175.38" cy="37.56" rx="0.74" ry="7.38"/>
		
			<ellipse transform="matrix(0.3854 -0.9227 0.9227 0.3854 88.8773 224.5635)" class="st2" cx="213.02" cy="45.56" rx="0.74" ry="7.38"/>
		
			<ellipse transform="matrix(0.6281 -0.7781 0.7781 0.6281 42.207 215.8489)" class="st2" cx="246.91" cy="63.77" rx="0.74" ry="7.38"/>
		
			<ellipse transform="matrix(0.8207 -0.5714 0.5714 0.8207 -2.6401 173.051)" class="st2" cx="274.37" cy="90.73" rx="0.74" ry="7.38"/>
		
			<ellipse transform="matrix(0.9477 -0.3191 0.3191 0.9477 -24.335 100.0545)" class="st2" cx="293.18" cy="124.29" rx="0.74" ry="7.38"/>
		
			<ellipse transform="matrix(0.9991 -0.0413 0.0413 0.9991 -6.4276 12.6123)" class="st2" cx="301.86" cy="161.78" rx="0.74" ry="7.38"/>
		
			<ellipse transform="matrix(0.2398 -0.9708 0.9708 0.2398 33.4935 443.1609)" class="st2" cx="299.71" cy="200.19" rx="7.38" ry="0.74"/>
		
			<ellipse transform="matrix(0.5017 -0.865 0.865 0.5017 -61.6022 366.0116)" class="st2" cx="286.9" cy="236.48" rx="7.38" ry="0.74"/>
		
			<ellipse transform="matrix(0.7236 -0.6902 0.6902 0.7236 -111.6963 256.5226)" class="st2" cx="264.45" cy="267.73" rx="7.38" ry="0.74"/>
		
			<ellipse transform="matrix(0.8878 -0.4603 0.4603 0.8878 -107.8736 140.4931)" class="st2" cx="234.16" cy="291.45" rx="7.38" ry="0.74"/>
		
			<ellipse transform="matrix(0.9811 -0.1936 0.1936 0.9811 -55.4522 44.2143)" class="st2" cx="198.44" cy="305.76" rx="7.38" ry="0.74"/>
		
			<ellipse transform="matrix(0.0885 -0.9961 0.9961 0.0885 -162.315 441.6531)" class="st2" cx="160.15" cy="309.51" rx="0.74" ry="7.38"/>
		
			<ellipse transform="matrix(0.3635 -0.9316 0.9316 0.3635 -203.8477 306.4428)" class="st2" cx="122.34" cy="302.4" rx="0.74" ry="7.38"/>
		
			<ellipse transform="matrix(0.6095 -0.7928 0.7928 0.6095 -191.5653 181.058)" class="st2" cx="88.02" cy="285" rx="0.74" ry="7.38"/>
		
			<ellipse transform="matrix(0.8069 -0.5906 0.5906 0.8069 -141.2239 85.3498)" class="st2" cx="59.94" cy="258.69" rx="0.74" ry="7.38"/>
		
			<ellipse transform="matrix(0.9399 -0.3414 0.3414 0.9399 -74.5917 27.3255)" class="st2" cx="40.34" cy="225.58" rx="0.74" ry="7.38"/>
		
			<ellipse transform="matrix(0.9979 -0.0649 0.0649 0.9979 -12.1589 2.3949)" class="st2" cx="30.78" cy="188.32" rx="0.74" ry="7.38"/>
		
			<ellipse transform="matrix(0.2168 -0.9762 0.9762 0.2168 -121.2153 148.6354)" class="st2" cx="32.02" cy="149.86" rx="7.38" ry="0.74"/>
		
			<ellipse transform="matrix(0.4811 -0.8766 0.8766 0.4811 -76.4966 97.3268)" class="st2" cx="43.97" cy="113.29" rx="7.38" ry="0.74"/>
		
			<ellipse transform="matrix(0.7071 -0.7071 0.7071 0.7071 -38.4035 70.3108)" class="st2" cx="65.67" cy="81.51" rx="7.38" ry="0.74"/>
	</g>
	<g id="Ebene_37" class="st1">
		<polygon class="st2" points="123.62,43.92 136.65,51.56 132.06,31.4 		"/>
		<g id="Ebene_33">
			<polygon class="st2" points="38.99,125.68 52.62,119.18 33.35,111.68 			"/>
			<g id="Ebene_38">
				<polygon class="st2" points="265.37,78.66 261.64,93.29 279.74,83.28 				"/>
				<g id="Ebene_39">
					<polygon class="st2" points="70.17,268.98 70.17,253.89 55.11,268.05 					"/>
				</g>
			</g>
		</g>
	</g>
</g>
<g id="Ebene_16">
	<rect x="99.78" y="130.2" class="st3" width="290.24" height="409"/>
</g>
<g id="Ebene_31">
	<polygon class="st4" points="99.78,130.2 99.78,539.2 390.02,539.2 	"/>
</g>
<g id="Ebene_22">
	<rect x="139.8" y="425.63" class="st5" width="26.36" height="27"/>
	<g id="Ebene_21">
		<rect x="139.8" y="373.41" class="st5" width="26.36" height="27"/>
	</g>
	<g id="Ebene_20">
		<rect x="139.8" y="321.2" class="st5" width="26.36" height="27"/>
	</g>
	<g id="Ebene_19">
		<rect x="139.8" y="268.98" class="st5" width="26.36" height="27"/>
	</g>
	<g id="Ebene_18">
		<rect x="139.8" y="155.34" class="st5" width="100.33" height="36.22"/>
		<rect x="139.8" y="216.77" class="st5" width="26.36" height="27"/>
	</g>
	<g id="Ebene_23">
		<g id="Ebene_25">
			<g id="Ebene_28">
				<rect x="139.8" y="503.82" class="st5" width="209" height="3"/>
				<g id="Ebene_27">
					<rect x="139.8" y="495.25" class="st5" width="209" height="3"/>
				</g>
				<g id="Ebene_26">
					<rect x="139.8" y="486.69" class="st5" width="209" height="3"/>
				</g>
				<g id="Ebene_24">
					<rect x="139.8" y="471.13" class="st5" width="209" height="10"/>
				</g>
			</g>
		</g>
	</g>
</g>
<g id="Ebene_29" class="st0">
	<rect x="99.78" y="129.48" class="st1" width="6" height="410.43"/>
	<g id="Ebene_30" class="st1">
		<rect x="241.55" y="394.42" transform="matrix(-1.836970e-16 1 -1 -1.836970e-16 783.7532 294.6445)" width="6" height="289.55"/>
	</g>
</g>
<g id="Ebene_17" class="st0">
	<g class="st1">
		
			<ellipse transform="matrix(0.5912 -0.8065 0.8065 0.5912 -206.5716 313.7071)" class="st6" cx="206.19" cy="360.64" rx="8.76" ry="1.03"/>
		
			<ellipse transform="matrix(0.8719 -0.4897 0.4897 0.8719 -167.2951 135.6595)" class="st6" cx="175.63" cy="387.57" rx="8.76" ry="1.03"/>
		
			<ellipse transform="matrix(0.9964 -0.0852 0.0852 0.9964 -33.5322 13.0949)" class="st6" cx="136.67" cy="399.45" rx="8.76" ry="1.03"/>
		
			<ellipse transform="matrix(0.3346 -0.9424 0.9424 0.3346 -307.3682 353.0077)" class="st6" cx="96.28" cy="394.15" rx="1.03" ry="8.76"/>
		
			<ellipse transform="matrix(0.6944 -0.7196 0.7196 0.6944 -249.2693 158.2635)" class="st6" cx="61.71" cy="372.62" rx="1.03" ry="8.76"/>
		
			<ellipse transform="matrix(0.9299 -0.3679 0.3679 0.9299 -121.8577 38.1456)" class="st6" cx="39.13" cy="338.72" rx="1.03" ry="8.76"/>
		
			<ellipse transform="matrix(0.0497 -0.9988 0.9988 0.0497 -267.1624 316.231)" class="st6" cx="32.6" cy="298.51" rx="8.76" ry="1.03"/>
		
			<ellipse transform="matrix(0.4584 -0.8887 0.8887 0.4584 -206.9225 178.8577)" class="st6" cx="43.29" cy="259.21" rx="8.76" ry="1.03"/>
		
			<ellipse transform="matrix(0.785 -0.6195 0.6195 0.785 -126.257 91.9098)" class="st6" cx="69.28" cy="227.85" rx="8.76" ry="1.03"/>
		
			<ellipse transform="matrix(0.9709 -0.2393 0.2393 0.9709 -47.1885 31.4505)" class="st6" cx="105.91" cy="210.04" rx="8.76" ry="1.03"/>
		
			<ellipse transform="matrix(0.1837 -0.983 0.983 0.1837 -85.7378 314.7213)" class="st6" cx="146.63" cy="208.99" rx="1.03" ry="8.76"/>
	</g>
</g>
<g id="Ebene_5">
	<g id="Ebene_2">
		<g id="Ebene_3">
			
				<ellipse transform="matrix(0.9362 -0.3514 0.3514 0.9362 -27.4962 142.8034)" class="st6" cx="379.72" cy="147.16" rx="54.3" ry="51.61"/>
		</g>
		
			<ellipse transform="matrix(0.9027 -0.4303 0.4303 0.9027 -69.2015 150.8315)" class="st6" cx="298.91" cy="228.43" rx="38.99" ry="36.78"/>
	</g>
	<g id="Ebene_7">
		<ellipse transform="matrix(0.9362 -0.3514 0.3514 0.9362 -61.2028 119.5889)" cx="298.91" cy="228.43" rx="22.98" ry="22.84"/>
		<g id="Ebene_8">
			<ellipse transform="matrix(0.9362 -0.3514 0.3514 0.9362 -27.4962 142.8034)" cx="379.72" cy="147.16" rx="31.92" ry="30.78"/>
		</g>
	</g>
	<g id="Ebene_9" class="st0">
		<g id="Ebene_13" class="st1">
			<g>
				<g>
					
						<ellipse transform="matrix(0.4136 -0.9105 0.9105 0.4136 -27.3845 435.5176)" class="st2" cx="324.39" cy="239.02" rx="2.47" ry="0.25"/>
				</g>
			</g>
			<g>
				<g>
					
						<ellipse transform="matrix(0.4136 -0.9105 0.9105 0.4136 -27.3845 435.5176)" class="st2" cx="324.39" cy="239.02" rx="2.47" ry="0.25"/>
				</g>
			</g>
			<g>
				<g>
					
						<ellipse transform="matrix(0.4136 -0.9105 0.9105 0.4136 -27.3845 435.5176)" class="st2" cx="324.39" cy="239.02" rx="2.47" ry="0.25"/>
				</g>
			</g>
			<g>
				<g>
					
						<ellipse transform="matrix(0.4136 -0.9105 0.9105 0.4136 -27.3845 435.5176)" class="st2" cx="324.39" cy="239.02" rx="2.47" ry="0.25"/>
				</g>
			</g>
		</g>
		<g id="Ebene_14" class="st1">
			<g>
				<g>
					
						<ellipse transform="matrix(0.2152 -0.9766 0.9766 0.2152 176.6401 527.9701)" class="st2" cx="416.82" cy="154.08" rx="2.39" ry="0.25"/>
				</g>
			</g>
			<g>
				<g>
					
						<ellipse transform="matrix(0.2152 -0.9766 0.9766 0.2152 176.6401 527.9701)" class="st2" cx="416.82" cy="154.08" rx="2.39" ry="0.25"/>
				</g>
			</g>
			<g>
				<g>
					
						<ellipse transform="matrix(0.2152 -0.9766 0.9766 0.2152 176.6401 527.9701)" class="st2" cx="416.82" cy="154.08" rx="2.39" ry="0.25"/>
				</g>
			</g>
			<g>
				<g>
					
						<ellipse transform="matrix(0.2152 -0.9766 0.9766 0.2152 176.6401 527.9701)" class="st2" cx="416.82" cy="154.08" rx="2.39" ry="0.25"/>
				</g>
			</g>
			<g>
				<g>
					
						<ellipse transform="matrix(0.2152 -0.9766 0.9766 0.2152 176.6401 527.9701)" class="st2" cx="416.82" cy="154.08" rx="2.39" ry="0.25"/>
				</g>
			</g>
			<g>
				<g>
					
						<ellipse transform="matrix(0.2152 -0.9766 0.9766 0.2152 176.6401 527.9701)" class="st2" cx="416.82" cy="154.08" rx="2.39" ry="0.25"/>
				</g>
			</g>
		</g>
	</g>
</g>
<g id="Ebene_34">
	<g id="Ebene_36">
		<g id="Ebene_35">
			
				<rect x="135.27" y="217.74" transform="matrix(0.6292 0.7772 -0.7772 0.6292 228.4261 -33.9908)" class="st7" width="29.14" height="9.37"/>
			
				<rect x="170" y="187.45" transform="matrix(0.6292 0.7772 -0.7772 0.6292 232.412 -55.8652)" class="st6" width="9.52" height="56.42"/>
		</g>
	</g>
	<g id="Ebene_32">
		
			<rect x="133.49" y="271.18" transform="matrix(0.6292 0.7772 -0.7772 0.6292 269.3053 -12.7954)" class="st7" width="29.14" height="9.37"/>
		
			<rect x="167.73" y="240.77" transform="matrix(0.6292 0.7772 -0.7772 0.6292 273.0081 -34.3279)" class="st6" width="9.52" height="56.42"/>
	</g>
</g>
</svg>
