<?xml version="1.0" encoding="UTF-8" standalone="no"?>
<!-- Generator: Adobe Adobe Illustrator 24.2.0, SVG Export Plug-In . SVG Version: 6.00 Build 0)  -->

<svg
   version="1.1"
   x="0px"
   y="0px"
   width="1920"
   height="1080"
   viewBox="0 0 1920 1080"
   xml:space="preserve"
   id="svg206"
   xmlns:xlink="http://www.w3.org/1999/xlink"
   xmlns="http://www.w3.org/2000/svg"
   xmlns:svg="http://www.w3.org/2000/svg"><defs
   id="defs210" />
<style
   type="text/css"
   id="style2">
	.st0{display:none;}
	.st1{display:inline;opacity:0.3216;fill:#E4E4E4;stroke:#000000;stroke-width:20;stroke-miterlimit:10;}
	.st2{display:inline;}
	.st3{fill:#FFFFFF;}
	.st4{display:inline;opacity:0.4902;fill:#FFFFFF;stroke:#000000;stroke-width:20;stroke-miterlimit:10;}
	.st5{fill:#EDEDED;}
	.st6{fill:#808080;}
	.st7{fill:#E3E3E3;}
	.st8{fill:#D4D4D4;}
	.st9{opacity:0.1412;}
	.st10{opacity:0.3686;fill:#E4E4E4;}
	.st11{opacity:0.902;}
	.st12{fill:#BEC76B;}
	.st13{clip-path:url(#SVGID_2_);}
	.st14{fill:#48632C;}
	.st15{clip-path:url(#SVGID_4_);}
	.st16{clip-path:url(#SVGID_6_);}
	.st17{fill:#3B5124;}
	.st18{clip-path:url(#SVGID_8_);}
	.st19{fill:#8F0007;}
	.st20{fill:#6B0007;}
	.st21{fill:#EB5D47;}
	.st22{display:inline;fill:#913F33;}
	.st23{fill:#868C4A;}
	.st24{fill:#211615;}
	.st25{fill:#22241B;}
	.st26{opacity:0.5294;fill:#2F401D;}
	.st27{display:inline;fill:#BEC76B;stroke:#728041;stroke-miterlimit:10;}
	.st28{font-family:'MyriadPro-Regular';}
	.st29{font-size:131.6678px;}
	.st30{font-size:61.1431px;}
</style>
<g
   id="Ebene_15"
   class="st0">
	<rect
   x="68.470001"
   y="62.189999"
   class="st1"
   width="432.39999"
   height="585.96002"
   id="rect4" />
	<g
   id="Ebene_16"
   class="st2">
		<polygon
   class="st3"
   points="77.25,490.21 309.7,72.14 342.55,72.14 77.25,544.25 "
   id="polygon6" />
		<polygon
   class="st3"
   points="77.25,638.43 380.34,72.14 467.13,72.14 165.58,638.43 "
   id="polygon8" />
	</g>
	<rect
   x="273.98999"
   y="72.139999"
   class="st4"
   width="1.27"
   height="569.63"
   id="rect11" />
</g>
<g
   id="Ebene_2">
	<g
   id="g20">
		<rect
   x="-2.73"
   y="834.21997"
   class="st5"
   width="1923"
   height="253"
   id="rect14" />
		<g
   id="g18">
			<path
   class="st5"
   d="m 1916.77,837.72 v 246 H 0.77 v -246 h 1916 m 7,-7 h -1930 v 260 h 1930 z"
   id="path16" />
		</g>
	</g>
</g>
<g
   id="Ebene_1">
	<g
   id="g25">
		<polygon
   class="st6"
   points="904,838.08 884,730.08 1036,730.08 1016,838.08 "
   id="polygon23" />
	</g>
	<g
   id="g29">
		<path
   class="st7"
   d="m 605,724.08 v -82 c 0,-13.25 10.75,-24 24,-24 h 662 c 13.25,0 24,10.75 24,24 v 82 c 0,13.25 -10.75,24 -24,24 H 629 c -13.25,0 -24,-10.75 -24,-24 z"
   id="path27" />
	</g>
	<g
   id="g33">
		<path
   class="st6"
   d="m 605,342.37 v -82 c 0,-13.25 10.75,-24 24,-24 h 662 c 13.25,0 24,10.75 24,24 v 82 c 0,13.25 -10.75,24 -24,24 H 629 c -13.25,0 -24,-10.74 -24,-24 z"
   id="path31" />
	</g>
	<g
   id="g37">
		<path
   class="st8"
   d="m 849,858.08 v -40 c 0,-5.52 4.48,-10 10,-10 h 202 c 5.52,0 10,4.48 10,10 v 40 c 0,5.52 -4.48,10 -10,10 H 859 c -5.52,0 -10,-4.48 -10,-10 z"
   id="path35" />
	</g>
	<g
   id="g41">
		<path
   class="st8"
   d="m 721.35,997.67 31.51,-70 c 1.61,-3.59 5.18,-5.9 9.12,-5.9 h 396.05 c 3.93,0 7.5,2.31 9.12,5.9 l 31.51,70 c 2.98,6.62 -1.86,14.1 -9.12,14.1 H 730.47 c -7.26,0 -12.1,-7.48 -9.12,-14.1 z"
   id="path39" />
	</g>
	<g
   id="g45">
		<path
   class="st3"
   d="m 605,665.36 v -374 c 0,-18.23 14.77,-33 33,-33 h 644 c 18.23,0 33,14.77 33,33 v 374 c 0,18.23 -14.77,33 -33,33 H 638 c -18.23,0 -33,-14.78 -33,-33 z"
   id="path43" />
	</g>
	<g
   class="st9"
   id="g49">
		<path
   class="st6"
   d="m 1286.64,275.89 c 4.71,-5.47 12.69,-1.6 12.78,6.2 l 4.42,385.85 c -0.02,5.24 -6.27,14.95 -13.75,14.73 l -354.25,0.41 z"
   id="path47" />
	</g>
	<polygon
   class="st10"
   points="884,683.08 1224.79,273.33 1155.73,273.33 814.25,683.08 "
   id="polygon51" />
	<ellipse
   class="st11"
   cx="1273.48"
   cy="719.09998"
   rx="14"
   ry="15.09"
   id="ellipse53" />
	<g
   id="Ebene_20">
		<path
   class="st6"
   d="m 1072.22,819.96 v 35.76 c 0,6.82 -5.53,12.35 -12.35,12.35 H 865.22 l 197.48,-59.33 c 4.78,-1.34 9.52,6.26 9.52,11.22 z"
   id="path55" />
	</g>
</g>
<g
   id="Ebene_5">
	<g
   id="Ebene_21">
		<path
   class="st12"
   d="m 1486.06,769.39 c -19.8,32.62 -21.61,85.1 -28.81,113.47 -0.66,2.59 1.35,5.1 4.08,5.1 14.41,0 43.22,0 57.63,0 2.73,0 4.74,-2.51 4.08,-5.1 -7.2,-28.37 -13.81,-78.19 -28.81,-113.47 -1.69,-3.96 -5.93,-3.69 -8.17,0 z"
   id="path59" />
	</g>
	<g
   id="g86">
		<g
   id="g72">
			<defs
   id="defs63"><rect
     id="SVGID_1_"
     x="1442.8101"
     y="769.67999"
     width="35.950001"
     height="112.12" /></defs>
			<clipPath
   id="SVGID_2_">
				<use
   xlink:href="#SVGID_1_"
   style="overflow:visible"
   id="use65" />
			</clipPath>
			<g
   class="st13"
   clip-path="url(#SVGID_2_)"
   id="g70">
				<path
   class="st14"
   d="m 1452.76,864.71 c -10.28,-12.41 -11.48,-47.24 -8.57,-61.69 1.6,-7.97 5.35,-39.81 10.89,-32.16 10.05,13.88 6.2,90.76 22.79,109.31 5.92,6.63 -19.45,-8.62 -25.11,-15.46 z"
   id="path68" />
			</g>
		</g>
		<g
   id="g84">
			<defs
   id="defs75"><rect
     id="SVGID_3_"
     x="1503.72"
     y="769.67999"
     width="35.950001"
     height="112.12" /></defs>
			<clipPath
   id="SVGID_4_">
				<use
   xlink:href="#SVGID_3_"
   style="overflow:visible"
   id="use77" />
			</clipPath>
			<g
   class="st15"
   clip-path="url(#SVGID_4_)"
   id="g82">
				<path
   class="st14"
   d="m 1529.72,864.71 c 10.28,-12.41 11.48,-47.24 8.57,-61.69 -1.6,-7.97 -5.35,-39.81 -10.89,-32.16 -10.05,13.88 -6.2,90.76 -22.79,109.31 -5.92,6.63 19.45,-8.62 25.11,-15.46 z"
   id="path80" />
			</g>
		</g>
	</g>
	<g
   id="g112">
		<g
   id="g98">
			<defs
   id="defs89"><rect
     id="SVGID_5_"
     x="1419.95"
     y="796.60999"
     width="71"
     height="90.519997" /></defs>
			<clipPath
   id="SVGID_6_">
				<use
   xlink:href="#SVGID_5_"
   style="overflow:visible"
   id="use91" />
			</clipPath>
			<g
   class="st16"
   clip-path="url(#SVGID_6_)"
   id="g96">
				<path
   class="st17"
   d="m 1456.8,884.52 c -15.65,-5.85 -30.01,-37.22 -32.33,-52.08 -1.28,-8.2 -9.24,-39.51 -0.43,-35.47 15.96,7.32 40.71,80.1 65.42,88.16 8.82,2.88 -24.03,2.61 -32.66,-0.61 z"
   id="path94" />
			</g>
		</g>
		<g
   id="g110">
			<defs
   id="defs101"><rect
     id="SVGID_7_"
     x="1490.95"
     y="796.60999"
     width="71"
     height="90.519997" /></defs>
			<clipPath
   id="SVGID_8_">
				<use
   xlink:href="#SVGID_7_"
   style="overflow:visible"
   id="use103" />
			</clipPath>
			<g
   class="st18"
   clip-path="url(#SVGID_8_)"
   id="g108">
				<path
   class="st17"
   d="m 1525.1,884.52 c 15.65,-5.85 30.01,-37.22 32.33,-52.08 1.28,-8.2 9.24,-39.51 0.43,-35.47 -15.96,7.32 -40.71,80.1 -65.42,88.16 -8.83,2.88 24.02,2.61 32.66,-0.61 z"
   id="path106" />
			</g>
		</g>
	</g>
	<g
   id="g116">
		<path
   class="st19"
   d="m 1446.19,951.22 v -51.29 h 89.52 v 49.33 c 0,6.29 -8.56,11.39 -19.14,11.4 l -54.36,0.07 c -8.85,0 -16.02,-4.26 -16.02,-9.51 z"
   id="path114" />
	</g>
	<g
   id="Ebene_11">
		<path
   class="st20"
   d="m 1535.71,915.17 -57.54,45.55 h 42.27 c 5.59,-0.67 14.91,-3.72 15.71,-11.36 z"
   id="path118" />
	</g>
	<g
   id="g123">
		<path
   class="st21"
   d="m 1433.4,899.93 v 0 c 0,-8.42 6.82,-15.24 15.24,-15.24 h 84.61 c 8.42,0 15.24,6.82 15.24,15.24 v 0 c 0,8.42 -6.82,15.24 -15.24,15.24 h -84.61 c -8.42,0 -15.24,-6.83 -15.24,-15.24 z"
   id="path121" />
	</g>
	<g
   id="Ebene_12"
   class="st0">
		<path
   class="st22"
   d="m 1477.81,826.76 -64.37,38.06 h 80.39 c 24.69,-5.74 16.08,-38.06 1.32,-38.06 z"
   id="path125" />
	</g>
</g>
<g
   id="Ebene_3">
	<polygon
   points="257.27,913.83 211.57,737.49 226.28,733.98 271.97,910.32 "
   id="polygon129" />
	<ellipse
   cx="217.72"
   cy="727.07001"
   rx="22.73"
   ry="21.799999"
   id="ellipse131" />
	<polygon
   points="214.9,715.84 348.85,587.36 359.56,597.63 225.62,726.12 "
   id="polygon133" />
	<g
   id="g137">
		<rect
   x="217.72"
   y="900.76001"
   class="st12"
   width="128.81"
   height="29.07"
   id="rect135" />
	</g>
	<path
   class="st12"
   d="M 375.36,718.1 370,712.96 c -29.59,-28.38 -29.59,-74.4 0,-102.79 l 5.36,-5.14 c 29.59,-28.38 77.56,-28.38 107.15,0 l 5.36,5.14 z"
   id="path139" />
	<path
   class="st23"
   d="m 374.79,718.1 c 0.7,0.58 -0.44,1.07 -0.08,0.63 l 57.36,-55.14 -80.83,-24.1 c -0.59,-0.14 -20.63,42.34 23.55,78.61 z"
   id="path141" />
	<polygon
   class="st12"
   points="362.12,619.77 326.22,582.31 354.11,557.72 390.01,595.17 "
   id="polygon143" />
	<polygon
   class="st23"
   points="326.22,582.64 363.01,619.45 354.19,558.39 "
   id="polygon145" />
	<polygon
   class="st23"
   points="346.52,929.83 233.46,929.83 346.52,900.76 "
   id="polygon147" />
</g>
<g
   id="Ebene_4">
	<ellipse
   class="st12"
   cx="1630.21"
   cy="220.83"
   rx="123.05"
   ry="121.5"
   id="ellipse150" />
	<g
   id="Ebene_9">
		<ellipse
   class="st3"
   cx="1630.21"
   cy="220.83"
   rx="61"
   ry="59"
   id="ellipse152" />
	</g>
	<g
   id="Ebene_8">
		<g
   id="g171">
			
				<rect
   x="1612.79"
   y="317.29999"
   transform="matrix(0.0363,-0.9993,0.9993,0.0363,1251.3221,1939.8055)"
   class="st24"
   width="37.240002"
   height="7.6300001"
   id="rect155" />
			
				<rect
   x="1541.53"
   y="288.78"
   transform="matrix(0.7323,-0.681,0.681,0.7323,218.408,1140.7688)"
   class="st24"
   width="37.240002"
   height="7.6300001"
   id="rect157" />
			
				<rect
   x="1526.11"
   y="203.41"
   transform="matrix(0.0363,-0.9993,0.9993,0.0363,1252.5342,1742.8905)"
   class="st24"
   width="7.6300001"
   height="37.240002"
   id="rect159" />
			
				<rect
   x="1554.63"
   y="132.14"
   transform="matrix(0.7323,-0.681,0.681,0.7323,314.5365,1101.6421)"
   class="st24"
   width="7.6300001"
   height="37.240002"
   id="rect161" />
			
				<rect
   x="1610.39"
   y="116.72"
   transform="matrix(0.0363,-0.9993,0.9993,0.0363,1449.4501,1744.1018)"
   class="st24"
   width="37.240002"
   height="7.6300001"
   id="rect163" />
			
				<rect
   x="1681.66"
   y="145.25"
   transform="matrix(0.7323,-0.681,0.681,0.7323,353.6632,1197.771)"
   class="st24"
   width="37.240002"
   height="7.6300001"
   id="rect165" />
			
				<rect
   x="1726.6899"
   y="201"
   transform="matrix(0.0363,-0.9993,0.9993,0.0363,1448.2389,1941.0178)"
   class="st24"
   width="7.6300001"
   height="37.240002"
   id="rect167" />
			
				<rect
   x="1698.16"
   y="272.26999"
   transform="matrix(0.7323,-0.681,0.681,0.7323,257.5347,1236.8982)"
   class="st24"
   width="7.6300001"
   height="37.240002"
   id="rect169" />
		</g>
	</g>
	<g
   id="Ebene_14">
		<polygon
   class="st25"
   points="1619.9,220.01 1623.62,154.22 1632.28,154.53 1628.57,220.32 "
   id="polygon174" />
		<polygon
   class="st25"
   points="1621.97,210.32 1700.51,214.56 1699.77,223.82 1621.24,219.58 "
   id="polygon176" />
	</g>
</g>
<g
   id="Ebene_6">
	<rect
   x="1741.25"
   y="570.12"
   class="st12"
   width="80"
   height="319.89999"
   id="rect180" />
	<rect
   x="1822"
   y="570.12"
   class="st14"
   width="80"
   height="319.89999"
   id="rect182" />
	<rect
   x="1661.25"
   y="570.12"
   class="st7"
   width="80"
   height="319.89999"
   id="rect184" />
	<g
   id="Ebene_10">
		<polygon
   class="st26"
   points="1822,890.03 1902,890.03 1902,570.12 "
   id="polygon186" />
		<polygon
   class="st26"
   points="1741.25,890.03 1822,890.03 1821.25,570.12 "
   id="polygon188" />
		<polygon
   class="st26"
   points="1662.01,890.03 1741.25,890.03 1741.25,570.12 "
   id="polygon190" />
	</g>
	<circle
   cx="1781.62"
   cy="809.10999"
   r="18.5"
   id="circle193" />
	<circle
   cx="1701.25"
   cy="809.10999"
   r="18.5"
   id="circle195" />
	<circle
   cx="1862"
   cy="809.10999"
   r="18.5"
   id="circle197" />
</g>
<g
   id="Ebene_18"
   class="st0">
	<text
   transform="matrix(1.25,0,0,1.24,649.6281,523.9197)"
   class="st27 st28 st29"
   id="text200">KIWICON </text>
</g>
<g
   id="Ebene_19"
   class="st0">
	<text
   transform="translate(744.9895,602.6907)"
   class="st2 st28 st30"
   id="text203">Damit’s fruchtet!</text>
</g>
<path
   id="slogan-path"
   fill="#000000"
   stroke="#000000"
   stroke-width="1.51806"
   d="m 682.66802,546.09787 c 2.10882,0 3.95463,-0.18752 5.5231,-0.55271 1.57324,-0.37505 2.87392,-1.04126 3.90681,-1.9937 1.03289,-0.9475 1.81234,-2.21084 2.32879,-3.79001 0.52122,-1.58411 0.77944,-3.58275 0.77944,-6.00085 0,-2.41317 -0.25822,-4.41181 -0.77944,-5.99098 -0.51645,-1.58411 -1.2959,-2.84745 -2.32879,-3.79988 -1.03289,-0.95244 -2.33357,-1.61372 -3.90681,-1.98384 -1.56847,-0.37505 -3.41428,-0.56258 -5.5231,-0.56258 0,0 -10.45324,0 -10.45324,0 0,0 0,24.67455 0,24.67455 0,0 10.45324,0 10.45324,0 z m 2.69699,-30.59644 c 2.46746,0 4.77234,0.37012 6.90507,1.11036 2.13751,0.74023 3.99289,1.86539 5.56613,3.37054 1.57325,1.50021 2.80698,3.39522 3.70597,5.68995 0.899,2.29473 1.35328,4.98919 1.35328,8.08832 0,3.09912 -0.45428,5.79852 -1.35328,8.08832 -0.89899,2.29473 -2.13272,4.19467 -3.70597,5.69982 -1.57324,1.50021 -3.42862,2.62043 -5.56613,3.36067 -2.13273,0.74024 -4.43761,1.11035 -6.90507,1.11035 0,0 -22.38408,0 -22.38408,0 0,0 0,-1.24853 0,-1.24853 1.02811,0 1.54456,-0.41947 1.54456,-1.24853 0,0 0,-31.5242 0,-31.5242 0,-0.82907 -0.51645,-1.24854 -1.54456,-1.24854 0,0 0,-1.24853 0,-1.24853 0,0 22.38408,0 22.38408,0 z m 44.92596,23.68757 c 0,0 -5.46093,-11.6908 -5.46093,-11.6908 0,0 -4.7819,11.6908 -4.7819,11.6908 0,0 10.24283,0 10.24283,0 z M 707.773,550.77123 c 0.54036,-0.0938 0.98029,-0.36025 1.31502,-0.80439 0.33952,-0.43921 0.59774,-0.8488 0.77467,-1.21399 0,0 10.05156,-22.60188 10.05156,-22.60188 0.26779,-0.64648 0.47819,-1.16958 0.63599,-1.55943 0.1578,-0.3948 0.2391,-0.77972 0.2391,-1.14984 0,-0.28129 -0.0574,-0.45401 -0.17215,-0.5231 -0.10999,-0.0691 -0.23431,-0.15298 -0.36821,-0.24674 0,0 0,-1.24854 0,-1.24854 0,0 10.17589,0 10.17589,0 0,0 0,1.24854 0,1.24854 -0.1339,0.0938 -0.28213,0.16285 -0.43994,0.20726 -0.15302,0.0494 -0.22953,0.23688 -0.22953,0.56258 0,0.28129 0.10042,0.61687 0.29648,1.01166 0.20562,0.38986 0.42081,0.83893 0.65034,1.35216 0,0 10.91708,23.63822 10.91708,23.63822 0.22953,0.41453 0.47819,0.7205 0.74598,0.90802 0.27256,0.18753 0.55948,0.32571 0.87508,0.41947 0,0 0,1.24853 0,1.24853 0,0 -9.56858,0 -9.56858,0 0,0 0,-1.08074 0,-1.08074 0.21997,0 0.45428,-0.0691 0.69816,-0.20727 0.24866,-0.14311 0.37777,-0.40959 0.37777,-0.79452 0,-0.28622 -0.0478,-0.54777 -0.13868,-0.78465 -0.0861,-0.24181 -0.20084,-0.55271 -0.33473,-0.9327 0,0 -1.82191,-4.09597 -1.82191,-4.09597 0,0 -14.42699,0 -14.42699,0 0,0 -1.89363,3.87884 -1.89363,3.87884 -0.17694,0.37999 -0.32517,0.73036 -0.43994,1.04126 -0.10998,0.30597 -0.16258,0.58232 -0.16258,0.82413 0,0.37999 0.10998,0.6218 0.33473,0.71557 0.22475,0.0938 0.54035,0.14311 0.9516,0.14311 0,0 0,1.29294 0,1.29294 0,0 -9.04258,0 -9.04258,0 0,0 0,-1.24853 0,-1.24853 z m 42.55892,0 c 0.22475,-0.0444 0.41603,-0.13818 0.57383,-0.27635 0.1578,-0.14312 0.2391,-0.46882 0.2391,-0.98205 0,0 0,-25.44439 0,-25.44439 0,-0.65141 -0.0574,-1.05114 -0.17215,-1.18932 -0.11477,-0.13818 -0.32517,-0.20726 -0.64078,-0.20726 0,0 0,-1.24854 0,-1.24854 0,0 9.37731,0 9.37731,0 0,0 0,1.24854 0,1.24854 -0.4495,0 -0.67425,0.20726 -0.67425,0.62673 0,0.18753 0.0765,0.43427 0.23432,0.74024 0.1578,0.29609 0.39211,0.72543 0.70772,1.27814 0,0 8.22487,15.64366 8.22487,15.64366 0,0 8.2966,-15.57457 8.2966,-15.57457 0.31082,-0.55271 0.55948,-1.00179 0.74119,-1.34723 0.17693,-0.35038 0.26779,-0.59713 0.26779,-0.74024 0,-0.41947 -0.18171,-0.62673 -0.54036,-0.62673 0,0 0,-1.24854 0,-1.24854 0,0 9.50642,0 9.50642,0 0,0 0,1.24854 0,1.24854 -0.22475,0 -0.43993,0.0592 -0.64555,0.17765 -0.19606,0.11351 -0.29648,0.36025 -0.29648,0.7353 0,0 0,26.13529 0,26.13529 0,0.37998 0.10042,0.64647 0.29648,0.80932 0.20562,0.16285 0.4208,0.24181 0.64555,0.24181 0,0 0,1.24853 0,1.24853 0,0 -7.82319,0 -7.82319,0 0,0 0,-1.24853 0,-1.24853 0.94204,0 1.35328,-0.35038 1.21939,-1.05113 0,0 0,-19.53731 0,-19.53731 0,0 -0.13868,0 -0.13868,0 0,0 -11.46221,21.83697 -11.46221,21.83697 0,0 -0.53558,0 -0.53558,0 0,0 -10.85491,-21.83697 -10.85491,-21.83697 0,0 0.0669,0 0.0669,0 0,0 -0.13389,0 -0.13389,0 0,0 0,19.53731 0,19.53731 0,0.70075 0.37777,1.05113 1.14287,1.05113 0,0 0,1.24853 0,1.24853 0,0 -7.62235,0 -7.62235,0 0,0 0,-1.24853 0,-1.24853 z m 48.57456,0 c 0.72206,0 1.2146,-0.079 1.48717,-0.24181 0.26778,-0.16285 0.40168,-0.42934 0.40168,-0.80932 0,0 0,-25.99711 0,-25.99711 0,-0.37505 -0.1339,-0.64154 -0.40168,-0.80439 -0.27257,-0.16285 -0.76511,-0.24674 -1.48717,-0.24674 0,0 0,-1.24854 0,-1.24854 0,0 10.24761,0 10.24761,0 0,0 0,1.24854 0,1.24854 -1.25764,0 -1.88885,0.35037 -1.88885,1.05113 0,0 0,25.99711 0,25.99711 0,0.70075 0.63121,1.05113 1.88885,1.05113 0,0 0,1.24853 0,1.24853 0,0 -10.24761,0 -10.24761,0 0,0 0,-1.24853 0,-1.24853 z m 29.01179,-0.0154 c 0.22953,0 0.45428,-0.079 0.67903,-0.24181 0.22475,-0.16285 0.33474,-0.43427 0.33474,-0.80933 0,0 0,-23.34705 0,-23.34705 0,0 -8.76045,0 -8.76045,0 -0.35864,0 -0.69816,0.0938 -1.01854,0.27635 -0.31083,0.18753 -0.46863,0.48856 -0.46863,0.91296 0,0 -1.20982,0 -1.20982,0 0,0 0,-7.6047 0,-7.6047 0,0 1.20982,0 1.20982,0 0,0.57739 0.1578,0.96725 0.46863,1.17451 0.32038,0.20233 0.6599,0.30597 1.01854,0.30597 0,0 23.99558,0 23.99558,0 0.35865,0 0.69816,-0.10364 1.00898,-0.30597 0.32039,-0.20726 0.47819,-0.59712 0.47819,-1.17451 0,0 1.20983,0 1.20983,0 0,0 0,7.6047 0,7.6047 0,0 -1.20983,0 -1.20983,0 0,-0.4244 -0.1578,-0.72543 -0.47819,-0.91296 -0.31082,-0.18259 -0.65033,-0.27635 -1.00898,-0.27635 0,0 -8.76044,0 -8.76044,0 0,0 0,23.34705 0,23.34705 0,0.70076 0.40168,1.05114 1.2146,1.05114 0,0 0,1.26334 0,1.26334 0,0 -8.70306,0 -8.70306,0 0,0 0,-1.26334 0,-1.26334 z m 32.66517,-35.41785 c -0.66947,0.18259 -1.1094,0.38493 -1.31502,0.61687 -0.20084,0.227 -0.32039,0.61686 -0.36343,1.16464 0,0 -0.34429,13.93618 -0.34429,13.93618 -0.0478,0.37012 0.0526,0.61193 0.30604,0.7205 0.24866,0.1135 0.54992,0.17272 0.90856,0.17272 0,0 0,0.82413 0,0.82413 0,0 -7.01505,0 -7.01505,0 0,0 0,-0.82413 0,-0.82413 0.36342,0 0.66947,-0.0592 0.91334,-0.17272 0.24866,-0.10857 0.34908,-0.35038 0.30604,-0.7205 0,0 -0.46862,-13.93618 -0.46862,-13.93618 -0.0478,-0.54778 -0.17215,-0.93764 -0.37777,-1.16464 -0.20562,-0.23194 -0.64078,-0.43428 -1.31503,-0.61687 0,0 0,-0.82413 0,-0.82413 0,0 8.76523,0 8.76523,0 0,0 0,0.82413 0,0.82413 z m 10.5154,25.83426 c 0,0.18259 -0.0149,0.37998 -0.0383,0.59219 -0.0191,0.2122 -0.0287,0.42933 -0.0287,0.66127 0,0.69583 0.42559,1.33243 1.27677,1.91475 0.85596,0.58232 1.87929,1.07087 3.06998,1.46567 1.1907,0.38985 2.38139,0.70075 3.57208,0.93269 1.1907,0.23194 2.12317,0.34545 2.79263,0.34545 0.63121,0 1.41066,-0.0444 2.33357,-0.13818 0.91813,-0.0938 1.82669,-0.28622 2.72568,-0.58725 0.899,-0.30103 1.65932,-0.7205 2.28575,-1.24854 0.63121,-0.52803 0.9516,-1.22879 0.9516,-2.1072 0,-1.01659 -0.5547,-1.7519 -1.65454,-2.21084 -1.09983,-0.46388 -2.4818,-0.8192 -4.1459,-1.07088 -1.66411,-0.25661 -3.4621,-0.51323 -5.39399,-0.76491 -1.93189,-0.25661 -3.73466,-0.67115 -5.39398,-1.24853 -1.66411,-0.57245 -3.04607,-1.40645 -4.14591,-2.49213 -1.10462,-1.08075 -1.65454,-2.6155 -1.65454,-4.60427 0,-2.94614 1.19069,-5.30009 3.57208,-7.05199 2.38617,-1.75189 5.7335,-2.6303 10.05156,-2.6303 2.10882,0 3.91637,0.15298 5.42267,0.46388 1.51108,0.30596 2.77829,0.64647 3.81118,1.01659 1.03289,0.37012 1.87929,0.71063 2.53441,1.01659 0.65042,0.3109 1.13332,0.46388 1.44892,0.46388 0.3587,0 0.6265,-0.0543 0.8082,-0.16779 0.1769,-0.11843 0.4017,-0.24674 0.679,-0.38492 0,0 0.7364,0.78465 0.7364,0.78465 0,0 -3.36648,6.68681 -3.36648,6.68681 0,0 -1.21939,-0.41947 -1.21939,-0.41947 -0.043,-0.28129 -0.0909,-0.56258 -0.13389,-0.83894 -0.043,-0.27635 -0.24866,-0.55764 -0.6073,-0.834 -0.899,-0.78465 -2.29531,-1.45579 -4.18417,-2.01344 -1.88885,-0.55764 -3.99766,-0.83893 -6.33601,-0.83893 -0.89422,0 -1.75018,0.0592 -2.5631,0.17765 -0.80336,0.11351 -1.52543,0.3109 -2.15664,0.59219 -0.62643,0.27636 -1.11897,0.64154 -1.48239,1.08075 -0.35386,0.44414 -0.53557,0.98698 -0.53557,1.63345 0,1.02646 0.54992,1.75683 1.64975,2.20097 1.09984,0.43921 2.48181,0.78959 4.14591,1.0462 1.6641,0.25662 3.4621,0.51323 5.39877,0.76985 1.93189,0.25168 3.72988,0.68595 5.39398,1.28801 1.65932,0.60206 3.04133,1.48541 4.14593,2.65498 1.0999,1.15971 1.6498,2.76355 1.6498,4.81154 0,2.04799 -0.483,3.72092 -1.4489,5.0188 -0.966,1.30282 -2.17106,2.32434 -3.61042,3.06952 -1.43935,0.74517 -3.02216,1.23372 -4.75799,1.46566 -1.73105,0.23194 -3.35689,0.34545 -4.8871,0.34545 -1.52064,0 -3.04129,-0.14805 -4.54759,-0.44908 -1.5063,-0.30103 -2.8787,-0.64647 -4.11722,-1.04127 -1.23851,-0.39479 -2.28574,-0.76491 -3.13692,-1.11528 -0.85596,-0.35038 -1.36763,-0.52311 -1.54934,-0.52311 -0.3156,0 -0.58339,0.13818 -0.80814,0.41454 0,0 -0.94203,-0.69583 -0.94203,-0.69583 0,0 3.10345,-7.78728 3.10345,-7.78728 0,0 1.28633,0.35038 1.28633,0.35038 z m 88.67082,-18.21476 c 0,-0.50829 -0.1913,-0.89321 -0.5739,-1.14983 -0.3825,-0.25662 -1.0472,-0.38492 -1.9892,-0.38492 0,0 -21.8437,0 -21.8437,0 0,0 0,8.88283 0,8.88283 0,0 13.2171,0 13.2171,0 0.8942,0 1.5924,-0.0938 2.0849,-0.27635 0.4974,-0.18753 0.746,-0.60206 0.746,-1.24853 0,0 1.2098,0 1.2098,0 0,0 0,9.95371 0,9.95371 0,0 -1.2098,0 -1.2098,0 0,-1.06594 -0.2486,-1.74696 -0.746,-2.05292 -0.4925,-0.30103 -1.1907,-0.45401 -2.0849,-0.45401 0,0 -13.2171,0 -13.2171,0 0,0 0,13.31438 0,13.31438 0,0.41947 0.1864,0.73037 0.5642,0.93764 0.3874,0.20233 0.8703,0.30596 1.4585,0.30596 0,0 0,1.23373 0,1.23373 0,0 -11.4622,0 -11.4622,0 0,0 0,-1.24853 0,-1.24853 1.1668,0 1.7502,-0.41947 1.7502,-1.24854 0,0 0,-31.5242 0,-31.5242 0,-0.82907 -0.5834,-1.24853 -1.7502,-1.24853 0,0 0,-1.24853 0,-1.24853 0,0 31.2832,0 31.2832,0 0.942,0 1.6067,-0.17766 1.9892,-0.53298 0.3826,-0.35531 0.5739,-0.83893 0.5739,-1.44099 0,0 1.2098,0 1.2098,0 0,0 0,9.43061 0,9.43061 0,0 -1.2098,0 -1.2098,0 z m 26.5634,11.7895 c 4.4042,0 6.6038,-1.49527 6.6038,-4.48583 0,-1.20412 -0.526,-2.15656 -1.5828,-2.85731 -1.0568,-0.69582 -2.7304,-1.0462 -5.021,-1.0462 0,0 -10.6541,0 -10.6541,0 0,0 0,8.38934 0,8.38934 0,0 10.6541,0 10.6541,0 z m 0.1291,-13.32425 c 4.0025,0 7.1299,0.68595 9.3773,2.05785 2.2428,1.37191 3.3665,3.71599 3.3665,7.02732 0,1.25346 -0.2247,2.36875 -0.679,3.3508 -0.4495,0.97711 -1.0425,1.83085 -1.7837,2.55628 -0.7412,0.7205 -1.5589,1.29788 -2.4579,1.74203 -0.899,0.4392 -1.8219,0.77478 -2.7687,1.00672 0,0 6.6134,9.88462 6.6134,9.88462 0.3586,0.5083 0.7507,0.88829 1.1763,1.1449 0.4256,0.25168 0.88954,0.44414 1.38684,0.58232 0,0 0,1.2436 0,1.2436 0,0 -10.31944,0 -10.31944,0 0,0 0,-1.26334 0,-1.26334 0.5834,0 0.8751,-0.20727 0.8751,-0.62673 0,-0.46388 -0.3347,-1.18932 -1.009,-2.17136 0,0 -5.327,-8.27585 -5.327,-8.27585 0,0 -9.3677,0 -9.3677,0 0,0 0,10.0228 0,10.0228 0,0.37506 0.1434,0.64648 0.4303,0.80933 0.2965,0.16285 0.5786,0.24181 0.8464,0.24181 0,0 0,1.26334 0,1.26334 0,0 -8.966,0 -8.966,0 0,0 0,-1.24853 0,-1.24853 0.8081,0 1.2098,-0.35038 1.2098,-1.05114 0,0 0,-25.99711 0,-25.99711 0,-0.70075 -0.4017,-1.05113 -1.2098,-1.05113 0,0 0,-1.24853 0,-1.24853 0,0 18.6063,0 18.6063,0 z m 31.88574,1.2584 c -0.9851,0 -1.4776,0.34544 -1.4776,1.04126 0,0 0,15.96937 0,15.96937 0,2.23058 0.7842,4.02195 2.3527,5.37412 1.5732,1.34723 3.9785,2.01838 7.2207,2.01838 3.2373,0 5.6378,-0.67115 7.2063,-2.01838 1.5732,-1.35217 2.3623,-3.14354 2.3623,-5.37412 0,0 0,-15.96937 0,-15.96937 0,-0.69582 -0.5595,-1.04126 -1.6785,-1.04126 0,0 0,-1.2584 0,-1.2584 0,0 9.3677,0 9.3677,0 0,0 0,1.24359 0,1.24359 -0.985,0 -1.4776,0.34545 -1.4776,1.03634 0,0 0,17.47451 0,17.47451 0,1.42619 -0.3203,2.79809 -0.9516,4.11078 -0.6264,1.31269 -1.5828,2.47239 -2.8595,3.48405 -1.2816,1.01659 -2.9218,1.81111 -4.9254,2.38356 -1.9988,0.57738 -4.3467,0.86361 -7.0437,0.86361 -2.7018,0 -5.0545,-0.28623 -7.0533,-0.86361 -1.9989,-0.57245 -3.6391,-1.36697 -4.9206,-2.38356 -1.2815,-1.01166 -2.2379,-2.17136 -2.8691,-3.48405 -0.6264,-1.31269 -0.9373,-2.68459 -0.9373,-4.11078 0,0 0,-17.47451 0,-17.47451 0,-0.36519 -0.1386,-0.63167 -0.4064,-0.78959 -0.2678,-0.16779 -0.7843,-0.24675 -1.5446,-0.24675 0,0 0,-1.24359 0,-1.24359 0,0 9.6355,0 9.6355,0 0,0 0,1.2584 0,1.2584 z m 59.243,7.21484 c 0,-0.0938 -0.015,-0.18259 -0.033,-0.27636 -0.024,-0.0938 -0.033,-0.20726 -0.033,-0.34544 0,-0.23194 -0.2199,-0.54284 -0.6694,-0.9327 -0.4495,-0.39973 -1.0903,-0.77972 -1.9224,-1.14983 -0.832,-0.37506 -1.8123,-0.69089 -2.936,-0.94257 -1.119,-0.25662 -2.3575,-0.38492 -3.706,-0.38492 -1.6211,0 -3.0891,0.22207 -4.4137,0.66127 -1.3294,0.44415 -2.4866,1.11036 -3.4765,1.99371 -0.985,0.88335 -1.7501,1.9789 -2.2953,3.28171 -0.5355,1.30282 -0.8033,2.78823 -0.8033,4.4661 0,1.67786 0.3012,3.17808 0.9085,4.50063 0.6073,1.32749 1.4059,2.46746 2.391,3.42483 0.9898,0.95244 2.1184,1.67294 3.3712,2.16149 1.2577,0.48856 2.544,0.73037 3.8495,0.73037 1.2098,0 2.4435,-0.16285 3.7059,-0.48362 1.2577,-0.32571 2.4053,-0.7057 3.4334,-1.1449 1.0377,-0.43921 1.8793,-0.9179 2.5344,-1.42619 0.6504,-0.51323 0.9803,-0.97711 0.9803,-1.39658 0,0 0,-0.55271 0,-0.55271 0,-0.28129 -0.024,-0.51817 -0.067,-0.70076 0,0 0.7364,-0.69582 0.7364,-0.69582 0,0 4.9923,7.37276 4.9923,7.37276 0,0 -0.679,0.34544 -0.679,0.34544 -0.5404,-0.23194 -0.9182,-0.34544 -1.1429,-0.34544 -0.3586,0 -0.9468,0.20726 -1.755,0.62179 -0.8081,0.41947 -1.8314,0.89322 -3.0652,1.42619 -1.2337,0.53791 -2.673,0.98698 -4.318,1.36204 -1.6402,0.36518 -3.4717,0.55271 -5.4896,0.55271 -2.0706,0 -4.1173,-0.2961 -6.1352,-0.89322 -2.0228,-0.60206 -3.8208,-1.55943 -5.394,-2.87705 -1.578,-1.31269 -2.8596,-2.95601 -3.8494,-4.92011 -0.9851,-1.96409 -1.4776,-4.23909 -1.4776,-6.82498 0,-2.57602 0.4925,-4.83621 1.4776,-6.77563 0.9898,-1.94435 2.2953,-3.57287 3.9163,-4.8905 1.6163,-1.31268 3.4669,-2.29473 5.5566,-2.93627 2.0945,-0.64647 4.2416,-0.97217 6.4412,-0.97217 1.7072,0 3.2709,0.15298 4.6863,0.45401 1.4107,0.30103 2.6587,0.64154 3.7442,1.02646 1.076,0.38492 1.9797,0.73037 2.697,1.03139 0.7173,0.30103 1.229,0.44908 1.5446,0.44908 0.2295,0 0.4208,-0.0691 0.5738,-0.20726 0.1626,-0.13818 0.33,-0.25662 0.5117,-0.34545 0,0 0.8033,0.48362 0.8033,0.48362 0,0 -4.4424,6.63746 -4.4424,6.63746 0,0 -0.7507,-0.56258 -0.7507,-0.56258 z m 21.7959,19.82353 c 0,0.37012 0.1001,0.64154 0.3012,0.80439 0.2009,0.15792 0.44,0.23688 0.7078,0.23688 0,0 0,1.2584 0,1.2584 0,0 -8.4927,0 -8.4927,0 0,0 0,-1.24853 0,-1.24853 0.2678,0 0.5021,-0.079 0.703,-0.24182 0.2008,-0.16285 0.306,-0.42933 0.306,-0.80932 0,0 0,-25.99711 0,-25.99711 0,-0.37505 -0.1046,-0.64153 -0.306,-0.80439 -0.2009,-0.16285 -0.4352,-0.24674 -0.703,-0.24674 0,0 0,-1.24853 0,-1.24853 0,0 8.4927,0 8.4927,0 0,0 0,1.22385 0,1.22385 -0.2678,0 -0.5069,0.0839 -0.7078,0.24182 -0.2008,0.15791 -0.3012,0.41946 -0.3012,0.77971 0,0 0,9.5984 0,9.5984 0,0 18.066,0 18.066,0 0,0 0,-9.5984 0,-9.5984 0,-0.36025 -0.1001,-0.6218 -0.306,-0.77971 -0.1961,-0.15792 -0.4304,-0.24182 -0.703,-0.24182 0,0 0,-1.22385 0,-1.22385 0,0 8.4975,0 8.4975,0 0,0 0,1.24853 0,1.24853 -0.2678,0 -0.5069,0.0839 -0.7078,0.24674 -0.2008,0.16286 -0.3012,0.42934 -0.3012,0.80439 0,0 0,25.99711 0,25.99711 0,0.37999 0.1001,0.64647 0.3012,0.80932 0.2009,0.16286 0.44,0.24182 0.7078,0.24182 0,0 0,1.24853 0,1.24853 0,0 -8.4975,0 -8.4975,0 0,0 0,-1.2584 0,-1.2584 0.2726,0 0.5069,-0.079 0.703,-0.23688 0.2056,-0.16285 0.306,-0.43427 0.306,-0.80439 0,0 0,-10.5311 0,-10.5311 0,0 -18.066,0 -18.066,0 0,0 0,10.5311 0,10.5311 z m 44.1369,1.03633 c 0.2296,0 0.4543,-0.079 0.6791,-0.24181 0.2247,-0.16285 0.3347,-0.43427 0.3347,-0.80933 0,0 0,-23.34705 0,-23.34705 0,0 -8.7604,0 -8.7604,0 -0.3587,0 -0.6982,0.0938 -1.0186,0.27635 -0.3108,0.18753 -0.4686,0.48856 -0.4686,0.91296 0,0 -1.2098,0 -1.2098,0 0,0 0,-7.6047 0,-7.6047 0,0 1.2098,0 1.2098,0 0,0.57739 0.1578,0.96725 0.4686,1.17451 0.3204,0.20233 0.6599,0.30597 1.0186,0.30597 0,0 23.9955,0 23.9955,0 0.3587,0 0.6982,-0.10364 1.009,-0.30597 0.3204,-0.20726 0.4782,-0.59712 0.4782,-1.17451 0,0 1.2098,0 1.2098,0 0,0 0,7.6047 0,7.6047 0,0 -1.2098,0 -1.2098,0 0,-0.4244 -0.1578,-0.72543 -0.4782,-0.91296 -0.3108,-0.18259 -0.6503,-0.27635 -1.009,-0.27635 0,0 -8.7604,0 -8.7604,0 0,0 0,23.34705 0,23.34705 0,0.70076 0.4017,1.05114 1.2146,1.05114 0,0 0,1.26334 0,1.26334 0,0 -8.7031,0 -8.7031,0 0,0 0,-1.26334 0,-1.26334 z m 52.4192,-23.0707 c 0,-0.88335 -0.6981,-1.32749 -2.0896,-1.32749 0,0 -16.445,0 -16.445,0 0,0 0,7.40236 0,7.40236 0,0 10.3767,0 10.3767,0 0.7651,0 1.3294,-0.0592 1.688,-0.17766 0.3587,-0.11843 0.5404,-0.42933 0.5404,-0.94256 0,0 1.2146,0 1.2146,0 0,0 0,7.18029 0,7.18029 0,0 -1.3485,0 -1.3485,0 0.1345,-0.51323 -0.048,-0.82906 -0.5404,-0.9475 -0.4925,-0.11844 -1.1907,-0.17766 -2.0897,-0.17766 0,0 -9.8411,0 -9.8411,0 0,0 0,8.38935 0,8.38935 0,0 17.2579,0 17.2579,0 0.5403,0 0.9898,-0.12337 1.3437,-0.37999 0.3634,-0.25662 0.5403,-0.59219 0.5403,-1.00672 0,0 1.2194,0 1.2194,0 0,0 0,7.3086 0,7.3086 0,0 -1.2194,0 -1.2194,0 0,-0.53791 -0.1769,-0.83894 -0.5403,-0.90309 -0.3539,-0.0592 -0.8034,-0.0839 -1.3437,-0.0839 0,0 -24.7464,0 -24.7464,0 0,0 0,-1.24853 0,-1.24853 0.2248,0 0.4495,-0.079 0.6743,-0.24182 0.2247,-0.16285 0.3347,-0.42933 0.3347,-0.80932 0,0 0,-25.99711 0,-25.99711 0,-0.37505 -0.1106,-0.64153 -0.3347,-0.80439 -0.2248,-0.16285 -0.4495,-0.24674 -0.6743,-0.24674 0,0 0,-1.24853 0,-1.24853 0,0 23.9335,0 23.9335,0 1.3915,0 2.0896,-0.49349 2.0896,-1.48048 0,0 1.2194,0 1.2194,0 0,0 0,7.74288 0,7.74288 0,0 -1.2194,0 -1.2194,0 z m 18.353,23.0707 c 0.2295,0 0.4543,-0.079 0.679,-0.24181 0.2248,-0.16285 0.3347,-0.43427 0.3347,-0.80933 0,0 0,-23.34705 0,-23.34705 0,0 -8.7604,0 -8.7604,0 -0.3586,0 -0.6982,0.0938 -1.0185,0.27635 -0.3109,0.18753 -0.4687,0.48856 -0.4687,0.91296 0,0 -1.2098,0 -1.2098,0 0,0 0,-7.6047 0,-7.6047 0,0 1.2098,0 1.2098,0 0,0.57739 0.1578,0.96725 0.4687,1.17451 0.3203,0.20233 0.6599,0.30597 1.0185,0.30597 0,0 23.9956,0 23.9956,0 0.3586,0 0.6981,-0.10364 1.009,-0.30597 0.3203,-0.20726 0.4782,-0.59712 0.4782,-1.17451 0,0 1.2098,0 1.2098,0 0,0 0,7.6047 0,7.6047 0,0 -1.2098,0 -1.2098,0 0,-0.4244 -0.1579,-0.72543 -0.4782,-0.91296 -0.3109,-0.18259 -0.6504,-0.27635 -1.009,-0.27635 0,0 -8.7605,0 -8.7605,0 0,0 0,23.34705 0,23.34705 0,0.70076 0.4017,1.05114 1.2146,1.05114 0,0 0,1.26334 0,1.26334 0,0 -8.703,0 -8.703,0 0,0 0,-1.26334 0,-1.26334 z m 37.6576,-35.40798 c -0.6742,0.18259 -1.1046,0.3948 -1.2863,0.63167 -0.177,0.23194 -0.3109,0.6218 -0.4017,1.17944 0,0 -2.0946,18.57501 -2.0946,18.57501 -0.043,0.37505 -0.087,0.71556 -0.1345,1.01659 -0.043,0.30103 -0.067,0.61193 -0.067,0.93269 0,0.37012 0.1151,0.61687 0.3348,0.73531 0.2295,0.1135 0.526,0.16778 0.8846,0.16778 0,0 0,0.83894 0,0.83894 0,0 -5.6665,0 -5.6665,0 0,0 0,-0.83894 0,-0.83894 0.3586,0 0.6503,-0.0543 0.8751,-0.16778 0.2295,-0.11844 0.3442,-0.36519 0.3442,-0.73531 0,-0.32076 -0.024,-0.63166 -0.067,-0.93269 -0.043,-0.30103 -0.091,-0.64154 -0.1345,-1.01659 0,0 -2.0945,-18.57501 -2.0945,-18.57501 -0.087,-0.55764 -0.2247,-0.9475 -0.4064,-1.17944 -0.1817,-0.23687 -0.6073,-0.44908 -1.2816,-0.63167 0,0 0,-0.834 0,-0.834 0,0 11.1946,0 11.1946,0 0,0 0,0.834 0,0.834 z m -5.595,27.78848 c 1.1668,0 2.1806,0.44908 3.0319,1.34723 0.856,0.90309 1.2863,1.96903 1.2863,3.20276 0,1.22879 -0.4303,2.26019 -1.2863,3.08925 -0.8513,0.82907 -1.8651,1.2436 -3.0319,1.2436 -1.1715,0 -2.1853,-0.41453 -3.0413,-1.2436 -0.8511,-0.82906 -1.2767,-1.86046 -1.2767,-3.08925 0,-1.23373 0.4256,-2.29967 1.2767,-3.20276 0.856,-0.89815 1.8698,-1.34723 3.0413,-1.34723 z M 650.63406,494.78468 c 2.27619,-1.00672 11.9165,-0.50336 15.00561,-0.47375 0,0 34.90788,0 34.90788,0 0,0 120.9821,0 120.9821,0 0,0 438.02225,0 438.02225,0 0.6839,-0.0296 2.1949,-0.0592 2.7975,0 1.5349,0.59219 1.5636,2.04305 0.3969,2.63524 -0.6982,0.36025 -2.3814,0.2961 -3.1944,0.2961 0,0 -462.88813,0 -462.88813,0 0,0 -111.41831,0 -111.41831,0 0,0 -27.25683,0 -27.25683,0 -1.6641,0 -9.48251,0.99685 -7.35457,-2.45759 z m 82.54997,-28.13885 c 0,0.74023 0.23909,1.29294 0.71728,1.66799 0.47819,0.36519 1.03289,0.55271 1.67367,0.55271 0,0 0,2.22071 0,2.22071 0,0 -18.64942,0 -18.64942,0 0,0 0,-2.23058 0,-2.23058 1.75018,0 2.63005,-0.74023 2.63005,-2.22564 0,0 0,-56.22836 0,-56.22836 0,-1.48541 -0.87987,-2.22565 -2.63005,-2.22565 0,0 0,-2.23058 0,-2.23058 0,0 18.64942,0 18.64942,0 0,0 0,2.23058 0,2.23058 -0.64078,0 -1.19548,0.18753 -1.67367,0.56258 -0.47819,0.37012 -0.71728,0.92283 -0.71728,1.66307 0,0 0,23.53458 0,23.53458 0,0 24.74633,-20.18871 24.74633,-20.18871 1.11419,-0.99192 1.98928,-1.79631 2.63005,-2.41317 0.63599,-0.6218 0.95638,-1.13503 0.95638,-1.54957 0,-0.57738 -0.18171,-0.99191 -0.53557,-1.23866 -0.36343,-0.24674 -0.77945,-0.37012 -1.25764,-0.37012 0,0 0,-2.23058 0,-2.23058 0,0 25.10498,0 25.10498,0 0,0 0,2.23058 0,2.23058 -1.43457,0 -2.86914,0.61687 -4.30371,1.85553 0,0 -27.49593,22.66111 -27.49593,22.66111 0,0 25.10498,30.09801 25.10498,30.09801 1.03289,1.23866 2.25227,2.45759 3.64859,3.65183 1.39153,1.19919 2.76394,2.00358 4.122,2.41317 0,0 0,2.23058 0,2.23058 0,0 -22.1163,0 -22.1163,0 0,0 0,-2.22071 0,-2.22071 1.03289,0 1.55412,-0.28622 1.55412,-0.8636 0,-0.4096 -0.55948,-1.31269 -1.67366,-2.71421 0,0 -20.44263,-24.30443 -20.44263,-24.30443 0,0 -10.04199,8.01923 -10.04199,8.01923 0,0 0,17.64231 0,17.64231 z m 57.14372,2.21083 c 2.07056,0 3.10823,-0.74023 3.10823,-2.22564 0,0 0,-56.22836 0,-56.22836 0,-1.48541 -1.03767,-2.22565 -3.10823,-2.22565 0,0 0,-2.23058 0,-2.23058 0,0 19.84489,0 19.84489,0 0,0 0,2.23058 0,2.23058 -2.07535,0 -3.10824,0.74024 -3.10824,2.22565 0,0 0,56.22836 0,56.22836 0,1.48541 1.03289,2.22564 3.10824,2.22564 0,0 0,2.23058 0,2.23058 0,0 -19.84489,0 -19.84489,0 0,0 0,-2.23058 0,-2.23058 z m 44.35213,-60.67965 c -1.19547,0 -1.79321,0.78465 -1.79321,2.34902 0,0.41453 0.0622,0.91296 0.17693,1.49034 0.12433,0.57245 0.42081,1.52489 0.899,2.84251 0,0 12.79158,34.43087 12.79158,34.43087 0,0 0.2391,0 0.2391,0 0,0 12.67203,-34.92436 12.67203,-34.92436 0.3969,-1.07087 0.65513,-1.87526 0.77945,-2.41317 0.11477,-0.53297 0.17694,-1.01166 0.17694,-1.42619 0,-1.56437 -0.52123,-2.34902 -1.55412,-2.34902 0,0 0,-2.23058 0,-2.23058 0,0 20.44263,0 20.44263,0 0,0 0,2.23058 0,2.23058 -0.55949,0 -0.95638,0.20727 -1.19548,0.6218 -0.2391,0.41454 -0.35864,0.86361 -0.35864,1.3571 0,0.82907 0.3969,2.23058 1.19547,4.20948 0,0 12.79159,34.92436 12.79159,34.92436 0,0 0.23909,0 0.23909,0 0,0 12.91112,-35.6646 12.91112,-35.6646 0.5547,-1.23866 0.8369,-2.35395 0.8369,-3.34586 0,-0.4935 -0.2009,-0.96725 -0.5978,-1.41632 -0.4017,-0.45895 -0.8799,-0.68596 -1.4346,-0.68596 0,0 0,-2.23058 0,-2.23058 0,0 17.6931,0 17.6931,0 0,0 0,2.23058 0,2.23058 -0.8799,0 -1.535,0.49349 -1.9749,1.48541 -0.4352,0.99192 -0.9373,2.23058 -1.492,3.71599 0,0 -17.2148,47.30604 -17.2148,47.30604 -0.4782,1.32256 -0.899,2.48226 -1.2529,3.46925 -0.3634,0.98698 -0.5404,1.81111 -0.5404,2.47732 0,0.57738 0.1961,1.09062 0.5978,1.54956 0.3969,0.45401 0.9564,0.67608 1.6736,0.67608 0,0 0,2.23058 0,2.23058 0,0 -18.88847,0 -18.88847,0 0,0 0,-2.23058 0,-2.23058 0.47819,-0.16285 0.97551,-0.40959 1.49196,-0.74023 0.52122,-0.33064 0.77945,-0.78465 0.77945,-1.36204 0,-0.66127 -0.13868,-1.40645 -0.41603,-2.23058 -0.28213,-0.82413 -0.74119,-1.98383 -1.37719,-3.46924 0,0 -13.74796,-36.53313 -13.74796,-36.53313 0,0 -0.2391,0 -0.2391,0 0,0 -13.03068,35.7929 -13.03068,35.7929 -1.19547,3.22249 -1.79321,5.24087 -1.79321,6.06993 0,1.32256 0.51644,2.14669 1.55412,2.47239 0,0 0,2.23058 0,2.23058 0,0 -18.52987,0 -18.52987,0 0,0 0,-2.23058 0,-2.23058 0.47819,0 0.95638,-0.12337 1.43457,-0.37011 0.47819,-0.24675 0.71728,-0.65635 0.71728,-1.23867 0,-0.65634 -0.13867,-1.3571 -0.41602,-2.09733 -0.28213,-0.74517 -0.58339,-1.52982 -0.899,-2.35889 0,0 -19.1276,-51.1454 -19.1276,-51.1454 -0.32039,-0.91296 -0.65991,-1.67294 -1.01377,-2.2898 -0.36342,-0.6218 -0.94203,-1.01659 -1.73583,-1.17945 0,0 0,-2.23058 0,-2.23058 0,0 18.52987,0 18.52987,0 0,0 0,2.23058 0,2.23058 z m 92.88848,60.67965 c 2.0705,0 3.1082,-0.74023 3.1082,-2.22564 0,0 0,-56.22836 0,-56.22836 0,-1.48541 -1.0377,-2.22565 -3.1082,-2.22565 0,0 0,-2.23058 0,-2.23058 0,0 19.8448,0 19.8448,0 0,0 0,2.23058 0,2.23058 -2.0753,0 -3.1082,0.74024 -3.1082,2.22565 0,0 0,56.22836 0,56.22836 0,1.48541 1.0329,2.22564 3.1082,2.22564 0,0 0,2.23058 0,2.23058 0,0 -19.8448,0 -19.8448,0 0,0 0,-2.23058 0,-2.23058 z m 98.74624,-6.43018 c -0.2391,0 -0.4591,-0.0154 -0.6552,-0.0543 -0.2008,-0.0395 -0.4208,-0.0592 -0.6599,-0.0592 -0.4782,0 -1.6162,0.48856 -3.4047,1.46567 -1.798,0.97218 -4.0646,2.06773 -6.819,3.29159 -2.7447,1.21892 -5.8769,2.27499 -9.382,3.16821 -3.5099,0.89322 -7.17294,1.34229 -10.99844,1.34229 -5.021,0 -9.8459,-0.65634 -14.4652,-1.97396 -4.6241,-1.32255 -8.7079,-3.36067 -12.256,-6.12422 -3.5434,-2.75862 -6.3552,-6.19825 -8.4258,-10.31396 -2.0753,-4.12065 -3.1082,-8.94699 -3.1082,-14.46422 0,-5.43827 1.0329,-10.23994 3.1082,-14.40007 2.0706,-4.16013 4.8824,-7.64418 8.4258,-10.4472 3.5481,-2.7981 7.6319,-4.90037 12.256,-6.29695 4.6193,-1.40645 9.4442,-2.10721 14.4652,-2.10721 4.0646,0 7.75154,0.33558 11.05584,1.01166 3.309,0.67115 6.1973,1.39164 8.6696,2.15162 2.4674,0.75504 4.4232,1.4706 5.8577,2.14175 1.4346,0.67608 2.3097,1.01166 2.6301,1.01166 0.3969,0 0.7364,-0.2122 1.0137,-0.63167 0.2822,-0.4244 0.4974,-0.75998 0.6599,-1.01166 0,0 1.7933,1.51009 1.7933,1.51009 0,0 -9.3247,15.03667 -9.3247,15.03667 0,0 -1.1955,-0.86361 -1.1955,-0.86361 0,-0.24675 -0.019,-0.49349 -0.063,-0.74024 -0.039,-0.24675 -0.1001,-0.53297 -0.1769,-0.86361 -0.1626,-0.90309 -0.9564,-1.83085 -2.3909,-2.77342 -1.4346,-0.9475 -3.2087,-1.79137 -5.3223,-2.53161 -2.1088,-0.74023 -4.3419,-1.3571 -6.6946,-1.85059 -2.34804,-0.49349 -4.52374,-0.74023 -6.51304,-0.74023 -3.3473,0 -6.556,0.49349 -9.6212,1.48047 -3.07,0.98698 -5.7383,2.42797 -8.0144,4.31804 -2.2667,1.89501 -4.0838,4.21442 -5.4371,6.97303 -1.358,2.75368 -2.0323,5.90215 -2.0323,9.43555 0,3.53833 0.6743,6.68187 2.0323,9.43555 1.3533,2.75861 3.1704,5.08295 5.4371,6.97302 2.2761,1.89501 4.9444,3.33107 8.0144,4.31805 3.0652,0.98698 6.2739,1.48047 9.6212,1.48047 2.5488,0 5.2171,-0.30596 8.00974,-0.92776 2.7878,-0.61193 5.3366,-1.39658 7.651,-2.33915 2.3097,-0.9475 4.2416,-2.01838 5.8004,-3.20769 1.5494,-1.19425 2.3288,-2.32434 2.3288,-3.39522 0,-0.57245 -0.1626,-1.06594 -0.4782,-1.48047 0,0 1.6737,-0.98698 1.6737,-0.98698 0,0 7.8901,13.06764 7.8901,13.06764 0,0 -0.9563,0.97218 -0.9563,0.97218 z m 48.7753,-45.62324 c -3.0317,0 -6.0586,0.49842 -9.0856,1.49034 -3.0317,0.99192 -5.7574,2.4181 -8.1914,4.27857 -2.4292,1.86046 -4.4041,4.15519 -5.9152,6.88419 -1.5158,2.72901 -2.2714,5.83307 -2.2714,9.30724 0,3.47418 0.7556,6.57824 2.2714,9.30724 1.5111,2.72901 3.486,5.02374 5.9152,6.8842 2.434,1.8654 5.1597,3.29159 8.1914,4.27857 3.027,0.99685 6.0539,1.49034 9.0856,1.49034 3.027,0 6.0539,-0.49349 9.0857,-1.49034 3.0269,-0.98698 5.7574,-2.41317 8.1914,-4.27857 2.4292,-1.86046 4.3993,-4.15519 5.9152,-6.8842 1.5111,-2.729 2.2714,-5.83306 2.2714,-9.30724 0,-3.47417 -0.7603,-6.57823 -2.2714,-9.30724 -1.5159,-2.729 -3.486,-5.02373 -5.9152,-6.88419 -2.434,-1.86047 -5.1645,-3.28665 -8.1914,-4.27857 -3.0318,-0.99192 -6.0587,-1.49034 -9.0857,-1.49034 z m 0,-11.3503 c 4.3803,0 8.8466,0.68102 13.3894,2.04306 4.5428,1.3571 8.6839,3.39521 12.4329,6.11435 3.7442,2.71913 6.8142,6.1637 9.2052,10.32383 2.3909,4.16013 3.5864,9.08517 3.5864,14.77019 0,5.68501 -1.1955,10.61005 -3.5864,14.77018 -2.391,4.16013 -5.461,7.59976 -9.2052,10.3189 -3.749,2.71913 -7.8901,4.69803 -12.4329,5.93669 -4.5428,1.23373 -9.0091,1.85059 -13.3894,1.85059 -4.385,0 -8.8465,-0.61686 -13.3893,-1.85059 -4.5428,-1.23866 -8.6887,-3.21756 -12.4329,-5.93669 -3.749,-2.71914 -6.8142,-6.15877 -9.2052,-10.3189 -2.3909,-4.16013 -3.5864,-9.08517 -3.5864,-14.77018 0,-5.68502 1.1955,-10.61006 3.5864,-14.77019 2.391,-4.16013 5.4562,-7.6047 9.2052,-10.32383 3.7442,-2.71914 7.8901,-4.75725 12.4329,-6.11435 4.5428,-1.36204 9.0043,-2.04306 13.3893,-2.04306 z m 49.9709,63.40372 c 1.5111,0 2.2714,-0.74023 2.2714,-2.22564 0,0 0,-56.22836 0,-56.22836 0,-1.48541 -0.7603,-2.22565 -2.2714,-2.22565 0,0 0,-2.23058 0,-2.23058 0,0 20.4426,0 20.4426,0 0,0 0,2.23058 0,2.23058 -0.6407,0 -0.9563,0.41454 -0.9563,1.23867 0,0.66127 0.7938,1.81111 2.3909,3.4643 0,0 34.3102,36.90819 34.3102,36.90819 0,0 0,-39.38551 0,-39.38551 0,-1.48541 -1.0377,-2.22565 -3.1083,-2.22565 0,0 0,-2.23058 0,-2.23058 0,0 18.0517,0 18.0517,0 0,0 0,2.23058 0,2.23058 -1.5159,0 -2.2714,0.74024 -2.2714,2.22565 0,0 0,56.22836 0,56.22836 0,1.48541 0.7555,2.22564 2.2714,2.22564 0,0 0,2.23058 0,2.23058 0,0 -19.3667,0 -19.3667,0 0,0 0,-2.23058 0,-2.23058 1.0329,0 1.5541,-0.37011 1.5541,-1.11528 0,-0.57739 -0.6408,-1.52489 -1.9127,-2.84745 0,0 -36.462,-39.37564 -36.462,-39.37564 0,0 0,41.11273 0,41.11273 0,1.48541 0.9133,2.22564 2.7496,2.22564 0,0 0,2.23058 0,2.23058 0,0 -17.6931,0 -17.6931,0 0,0 0,-2.23058 0,-2.23058 z" /></svg>
