<?xml version="1.0" encoding="utf-8"?>
<!-- Generator: Adobe Adobe Illustrator 24.2.0, SVG Export Plug-In . SVG Version: 6.00 Build 0)  -->
<svg version="1.1" xmlns="http://www.w3.org/2000/svg" xmlns:xlink="http://www.w3.org/1999/xlink" x="0px" y="0px" width="480px"
	 height="640px" viewBox="0 0 480 640" style="enable-background:new 0 0 480 640;" xml:space="preserve">
<style type="text/css">
	.st0{fill:#EDEDED;}
	.st1{fill:#FFFFFF;}
	.st2{display:none;}
	.st3{display:inline;}
	.st4{stroke:#000000;stroke-miterlimit:10;}
	.st5{fill:#6A703B;}
	.st6{fill:#BDC76B;}
</style>
<g id="Ebene_7">
	<g>
		<path class="st0" d="M268.56,425.58v27.89c0,2.38-1.93,4.31-4.31,4.31l-28.03,0c-2.23,0-4.04-1.81-4.04-4.04l0-28.15
			c0-1.59,1.29-2.88,2.88-2.88h30.62C267.27,422.7,268.56,423.99,268.56,425.58z"/>
		<path class="st0" d="M209.65,415.19l-19.72,19.72c-1.68,1.68-4.41,1.68-6.09,0l-19.82-19.82c-1.58-1.58-1.58-4.14,0-5.72
			l19.9-19.9c1.13-1.13,2.95-1.13,4.07,0l21.65,21.65C210.78,412.24,210.78,414.06,209.65,415.19z"/>
		<path class="st0" d="M175.34,366.19h-27.89c-2.38,0-4.31-1.93-4.31-4.31l0-28.03c0-2.23,1.81-4.04,4.04-4.04h28.15
			c1.59,0,2.88,1.29,2.88,2.88v30.62C178.22,364.9,176.93,366.19,175.34,366.19z"/>
		<path class="st0" d="M185.73,307.28l-19.72-19.72c-1.68-1.68-1.68-4.41,0-6.09l19.82-19.82c1.58-1.58,4.14-1.58,5.72,0l19.9,19.9
			c1.13,1.13,1.13,2.95,0,4.07l-21.65,21.65C188.68,308.4,186.85,308.4,185.73,307.28z"/>
		<path class="st0" d="M234.73,272.96l0-27.89c0-2.38,1.93-4.31,4.31-4.31h28.03c2.23,0,4.04,1.81,4.04,4.04v28.15
			c0,1.59-1.29,2.88-2.88,2.88h-30.62C236.02,275.84,234.73,274.55,234.73,272.96z"/>
		<path class="st0" d="M293.64,283.35l19.72-19.72c1.68-1.68,4.41-1.68,6.09,0l19.82,19.82c1.58,1.58,1.58,4.14,0,5.72l-19.9,19.9
			c-1.13,1.13-2.95,1.13-4.07,0l-21.65-21.65C292.52,286.3,292.52,284.47,293.64,283.35z"/>
		<path class="st0" d="M327.96,332.35h27.89c2.38,0,4.31,1.93,4.31,4.31l0,28.03c0,2.23-1.81,4.04-4.04,4.04l-28.15,0
			c-1.59,0-2.88-1.29-2.88-2.88v-30.62C325.07,333.64,326.36,332.35,327.96,332.35z"/>
		<path class="st0" d="M317.57,391.26l19.72,19.72c1.68,1.68,1.68,4.41,0,6.09l-19.82,19.82c-1.58,1.58-4.14,1.58-5.72,0l-19.9-19.9
			c-1.13-1.13-1.13-2.95,0-4.07l21.65-21.65C314.62,390.14,316.44,390.14,317.57,391.26z"/>
	</g>
	<ellipse class="st0" cx="251.65" cy="349.27" rx="79.78" ry="81.27"/>
	<ellipse class="st1" cx="251.65" cy="349.27" rx="52.04" ry="52.29"/>
</g>
<g id="Ebene_8" class="st2">
	<g class="st3">
		
			<ellipse transform="matrix(0.9031 -0.4295 0.4295 0.9031 -85.578 190.6131)" class="st4" cx="379.52" cy="284.91" rx="0.92" ry="7.31"/>
		
			<ellipse transform="matrix(0.9855 -0.1699 0.1699 0.9855 -48.9743 71.3088)" class="st4" cx="392.14" cy="321.79" rx="0.92" ry="7.31"/>
		
			<ellipse transform="matrix(0.1023 -0.9948 0.9948 0.1023 -4.8071 716.1085)" class="st4" cx="394.35" cy="360.72" rx="7.31" ry="0.92"/>
		
			<ellipse transform="matrix(0.3669 -0.9303 0.9303 0.3669 -126.6147 611.5507)" class="st4" cx="385.97" cy="398.79" rx="7.31" ry="0.92"/>
		
			<ellipse transform="matrix(0.6042 -0.7968 0.7968 0.6042 -199.6792 464.3683)" class="st4" cx="367.62" cy="433.19" rx="7.31" ry="0.92"/>
		
			<ellipse transform="matrix(0.7968 -0.6042 0.6042 0.7968 -209.5536 299.6012)" class="st4" cx="340.68" cy="461.37" rx="7.31" ry="0.92"/>
		
			<ellipse transform="matrix(0.9303 -0.3669 0.3669 0.9303 -155.1302 146.2267)" class="st4" cx="307.13" cy="481.24" rx="7.31" ry="0.92"/>
		
			<ellipse transform="matrix(0.9948 -0.1023 0.1023 0.9948 -48.8316 30.1337)" class="st4" cx="269.47" cy="491.31" rx="7.31" ry="0.92"/>
		
			<ellipse transform="matrix(0.1699 -0.9855 0.9855 0.1699 -292.3903 634.5914)" class="st4" cx="230.49" cy="490.85" rx="0.92" ry="7.31"/>
		
			<ellipse transform="matrix(0.4295 -0.9031 0.9031 0.4295 -323.2292 448.1499)" class="st4" cx="193.07" cy="479.9" rx="0.92" ry="7.31"/>
		
			<ellipse transform="matrix(0.6572 -0.7537 0.7537 0.6572 -291.2932 278.0261)" class="st4" cx="160" cy="459.25" rx="0.92" ry="7.31"/>
		
			<ellipse transform="matrix(0.8362 -0.5485 0.5485 0.8362 -214.1714 143.8602)" class="st4" cx="133.73" cy="430.45" rx="0.92" ry="7.31"/>
		
			<ellipse transform="matrix(0.9531 -0.3025 0.3025 0.9531 -114.237 53.6903)" class="st4" cx="116.2" cy="395.62" rx="0.92" ry="7.31"/>
		
			<ellipse transform="matrix(0.9994 -0.0341 0.0341 0.9994 -12.1378 3.9203)" class="st4" cx="108.72" cy="357.36" rx="0.92" ry="7.31"/>
	</g>
</g>
<g id="Ebene_2">
	<path class="st5" d="M159.97,419.62l-76.15-71.38l13.68-14.59l80.99,75.91l-9.14,9.76C166.84,421.99,162.64,422.13,159.97,419.62z"
		/>
	<g id="Ebene_3">
		<path class="st6" d="M149.48,410.65l84.31-89.95c2.54-2.71,6.79-2.84,9.49-0.31l10.42,9.77l-84.35,89.99
			c-2.52,2.68-6.73,2.82-9.42,0.3L149.48,410.65z"/>
		<g id="Ebene_4">
			<path class="st5" d="M274.74,380.31l-51.31-48.1l10.94-11.67c2.27-2.42,6.06-2.54,8.48-0.27l51.07,47.87l-11.17,11.92
				C280.61,382.33,277.02,382.45,274.74,380.31z"/>
			<g id="Ebene_5">
				<path class="st6" d="M260.5,367.42l115.82-123.56l18.24,17.1L283.09,379.88c-2.4,2.56-6.42,2.69-8.98,0.29L260.5,367.42z"/>
			</g>
		</g>
	</g>
	<g id="Ebene_6">
		<path class="st6" d="M419.48,217.75l-57.02,11.98c-1.14,0.24-1.54,1.66-0.69,2.46l46.85,43.91c0.93,0.87,2.45,0.34,2.63-0.92
			L419.48,217.75z"/>
	</g>
</g>
</svg>
