<?xml version="1.0" encoding="UTF-8" standalone="no"?>
<!DOCTYPE svg PUBLIC "-//W3C//DTD SVG 20010904//EN"
              "http://www.w3.org/TR/2001/REC-SVG-20010904/DTD/svg10.dtd">

<svg xmlns="http://www.w3.org/2000/svg"
     width="6.4in" height="3.6in"
     viewBox="0 0 1920 1080">
  <path id="slogan-path"
        fill="black" stroke="black" stroke-width="1"
        d="M 412.61,658.00
           C 417.02,658.00 420.88,657.62 424.16,656.88
             427.45,656.12 430.17,654.77 432.33,652.84
             434.49,650.92 436.12,648.36 437.20,645.16
             438.29,641.95 438.83,637.90 438.83,633.00
             438.83,628.11 438.29,624.06 437.20,620.86
             436.12,617.65 434.49,615.09 432.33,613.16
             430.17,611.23 427.45,609.89 424.16,609.14
             420.88,608.38 417.02,608.00 412.61,608.00
             412.61,608.00 390.75,608.00 390.75,608.00
             390.75,608.00 390.75,658.00 390.75,658.00
             390.75,658.00 412.61,658.00 412.61,658.00 Z
           M 418.25,596.00
           C 423.41,596.00 428.23,596.75 432.69,598.25
             437.16,599.75 441.04,602.03 444.33,605.08
             447.62,608.12 450.20,611.96 452.08,616.61
             453.96,621.26 454.91,626.72 454.91,633.00
             454.91,639.28 453.96,644.75 452.08,649.39
             450.20,654.04 447.62,657.89 444.33,660.94
             441.04,663.98 437.16,666.25 432.69,667.75
             428.23,669.25 423.41,670.00 418.25,670.00
             418.25,670.00 371.44,670.00 371.44,670.00
             371.44,670.00 371.44,667.47 371.44,667.47
             373.59,667.47 374.67,666.62 374.67,664.94
             374.67,664.94 374.67,601.06 374.67,601.06
             374.67,599.38 373.59,598.53 371.44,598.53
             371.44,598.53 371.44,596.00 371.44,596.00
             371.44,596.00 418.25,596.00 418.25,596.00 Z
           M 512.20,644.00
           C 512.20,644.00 500.78,620.31 500.78,620.31
             500.78,620.31 490.78,644.00 490.78,644.00
             490.78,644.00 512.20,644.00 512.20,644.00 Z
           M 465.11,667.47
           C 466.24,667.28 467.16,666.74 467.86,665.84
             468.57,664.95 469.11,664.12 469.48,663.38
             469.48,663.38 490.50,617.58 490.50,617.58
             491.06,616.27 491.50,615.21 491.83,614.42
             492.16,613.62 492.33,612.84 492.33,612.09
             492.33,611.52 492.21,611.17 491.97,611.03
             491.74,610.89 491.48,610.72 491.20,610.53
             491.20,610.53 491.20,608.00 491.20,608.00
             491.20,608.00 512.48,608.00 512.48,608.00
             512.48,608.00 512.48,610.53 512.48,610.53
             512.20,610.72 511.89,610.86 511.56,610.95
             511.24,611.05 511.08,611.43 511.08,612.09
             511.08,612.66 511.29,613.34 511.70,614.14
             512.13,614.93 512.58,615.84 513.06,616.88
             513.06,616.88 535.89,664.78 535.89,664.78
             536.37,665.62 536.89,666.24 537.45,666.62
             538.02,667.00 538.62,667.28 539.28,667.47
             539.28,667.47 539.28,670.00 539.28,670.00
             539.28,670.00 519.27,670.00 519.27,670.00
             519.27,670.00 519.27,667.81 519.27,667.81
             519.73,667.81 520.22,667.67 520.73,667.39
             521.25,667.10 521.52,666.56 521.52,665.78
             521.52,665.20 521.42,664.67 521.23,664.19
             521.05,663.70 520.81,663.07 520.53,662.30
             520.53,662.30 516.72,654.00 516.72,654.00
             516.72,654.00 486.55,654.00 486.55,654.00
             486.55,654.00 482.59,661.86 482.59,661.86
             482.22,662.63 481.91,663.34 481.67,663.97
             481.44,664.59 481.33,665.15 481.33,665.64
             481.33,666.41 481.56,666.90 482.03,667.09
             482.50,667.28 483.16,667.38 484.02,667.38
             484.02,667.38 484.02,670.00 484.02,670.00
             484.02,670.00 465.11,670.00 465.11,670.00
             465.11,670.00 465.11,667.47 465.11,667.47 Z
           M 554.11,667.47
           C 554.58,667.38 554.98,667.19 555.31,666.91
             555.64,666.62 555.81,665.96 555.81,664.92
             555.81,664.92 555.81,613.36 555.81,613.36
             555.81,612.04 555.69,611.23 555.45,610.95
             555.21,610.67 554.77,610.53 554.11,610.53
             554.11,610.53 554.11,608.00 554.11,608.00
             554.11,608.00 573.72,608.00 573.72,608.00
             573.72,608.00 573.72,610.53 573.72,610.53
             572.78,610.53 572.31,610.95 572.31,611.80
             572.31,612.18 572.47,612.68 572.80,613.30
             573.13,613.90 573.62,614.77 574.28,615.89
             574.28,615.89 591.48,647.59 591.48,647.59
             591.48,647.59 608.83,616.03 608.83,616.03
             609.48,614.91 610.00,614.00 610.38,613.30
             610.75,612.59 610.94,612.09 610.94,611.80
             610.94,610.95 610.56,610.53 609.81,610.53
             609.81,610.53 609.81,608.00 609.81,608.00
             609.81,608.00 629.69,608.00 629.69,608.00
             629.69,608.00 629.69,610.53 629.69,610.53
             629.22,610.53 628.77,610.65 628.34,610.89
             627.93,611.12 627.72,611.62 627.72,612.38
             627.72,612.38 627.72,665.34 627.72,665.34
             627.72,666.11 627.93,666.65 628.34,666.98
             628.77,667.31 629.22,667.47 629.69,667.47
             629.69,667.47 629.69,670.00 629.69,670.00
             629.69,670.00 613.33,670.00 613.33,670.00
             613.33,670.00 613.33,667.47 613.33,667.47
             615.30,667.47 616.16,666.76 615.88,665.34
             615.88,665.34 615.88,625.75 615.88,625.75
             615.88,625.75 615.59,625.75 615.59,625.75
             615.59,625.75 591.62,670.00 591.62,670.00
             591.62,670.00 590.50,670.00 590.50,670.00
             590.50,670.00 567.80,625.75 567.80,625.75
             567.80,625.75 567.94,625.75 567.94,625.75
             567.94,625.75 567.66,625.75 567.66,625.75
             567.66,625.75 567.66,665.34 567.66,665.34
             567.66,666.76 568.45,667.47 570.05,667.47
             570.05,667.47 570.05,670.00 570.05,670.00
             570.05,670.00 554.11,670.00 554.11,670.00
             554.11,670.00 554.11,667.47 554.11,667.47 Z
           M 655.69,667.47
           C 657.20,667.47 658.23,667.31 658.80,666.98
             659.36,666.65 659.64,666.11 659.64,665.34
             659.64,665.34 659.64,612.66 659.64,612.66
             659.64,611.90 659.36,611.36 658.80,611.03
             658.23,610.70 657.20,610.53 655.69,610.53
             655.69,610.53 655.69,608.00 655.69,608.00
             655.69,608.00 677.12,608.00 677.12,608.00
             677.12,608.00 677.12,610.53 677.12,610.53
             674.49,610.53 673.17,611.24 673.17,612.66
             673.17,612.66 673.17,665.34 673.17,665.34
             673.17,666.76 674.49,667.47 677.12,667.47
             677.12,667.47 677.12,670.00 677.12,670.00
             677.12,670.00 655.69,670.00 655.69,670.00
             655.69,670.00 655.69,667.47 655.69,667.47 Z
           M 716.36,667.44
           C 716.84,667.44 717.31,667.28 717.78,666.95
             718.25,666.62 718.48,666.07 718.48,665.31
             718.48,665.31 718.48,618.00 718.48,618.00
             718.48,618.00 700.16,618.00 700.16,618.00
             699.41,618.00 698.70,618.19 698.03,618.56
             697.38,618.94 697.05,619.55 697.05,620.41
             697.05,620.41 694.52,620.41 694.52,620.41
             694.52,620.41 694.52,605.00 694.52,605.00
             694.52,605.00 697.05,605.00 697.05,605.00
             697.05,606.17 697.38,606.96 698.03,607.38
             698.70,607.79 699.41,608.00 700.16,608.00
             700.16,608.00 750.34,608.00 750.34,608.00
             751.09,608.00 751.80,607.79 752.45,607.38
             753.12,606.96 753.45,606.17 753.45,605.00
             753.45,605.00 755.98,605.00 755.98,605.00
             755.98,605.00 755.98,620.41 755.98,620.41
             755.98,620.41 753.45,620.41 753.45,620.41
             753.45,619.55 753.12,618.94 752.45,618.56
             751.80,618.19 751.09,618.00 750.34,618.00
             750.34,618.00 732.02,618.00 732.02,618.00
             732.02,618.00 732.02,665.31 732.02,665.31
             732.02,666.73 732.86,667.44 734.56,667.44
             734.56,667.44 734.56,670.00 734.56,670.00
             734.56,670.00 716.36,670.00 716.36,670.00
             716.36,670.00 716.36,667.44 716.36,667.44 Z
           M 784.67,595.67
           C 783.27,596.04 782.35,596.45 781.92,596.92
             781.50,597.38 781.25,598.17 781.16,599.28
             781.16,599.28 780.44,627.52 780.44,627.52
             780.34,628.27 780.55,628.76 781.08,628.98
             781.60,629.21 782.23,629.33 782.98,629.33
             782.98,629.33 782.98,631.00 782.98,631.00
             782.98,631.00 768.31,631.00 768.31,631.00
             768.31,631.00 768.31,629.33 768.31,629.33
             769.07,629.33 769.71,629.21 770.22,628.98
             770.74,628.76 770.95,628.27 770.86,627.52
             770.86,627.52 769.88,599.28 769.88,599.28
             769.78,598.17 769.52,597.38 769.09,596.92
             768.66,596.45 767.75,596.04 766.34,595.67
             766.34,595.67 766.34,594.00 766.34,594.00
             766.34,594.00 784.67,594.00 784.67,594.00
             784.67,594.00 784.67,595.67 784.67,595.67 Z
           M 806.66,648.02
           C 806.66,648.39 806.63,648.79 806.58,649.22
             806.54,649.65 806.52,650.09 806.52,650.56
             806.52,651.97 807.41,653.26 809.19,654.44
             810.98,655.62 813.12,656.61 815.61,657.41
             818.10,658.20 820.59,658.83 823.08,659.30
             825.57,659.77 827.52,660.00 828.92,660.00
             830.24,660.00 831.87,659.91 833.80,659.72
             835.72,659.53 837.62,659.14 839.50,658.53
             841.38,657.92 842.97,657.07 844.28,656.00
             845.60,654.93 846.27,653.51 846.27,651.73
             846.27,649.67 845.11,648.18 842.81,647.25
             840.51,646.31 837.62,645.59 834.14,645.08
             830.66,644.56 826.90,644.04 822.86,643.53
             818.82,643.01 815.05,642.17 811.58,641.00
             808.10,639.84 805.21,638.15 802.91,635.95
             800.60,633.76 799.45,630.65 799.45,626.62
             799.45,620.65 801.94,615.88 806.92,612.33
             811.91,608.78 818.91,607.00 827.94,607.00
             832.35,607.00 836.13,607.31 839.28,607.94
             842.44,608.56 845.09,609.25 847.25,610.00
             849.41,610.75 851.18,611.44 852.55,612.06
             853.91,612.69 854.92,613.00 855.58,613.00
             856.33,613.00 856.89,612.89 857.27,612.66
             857.64,612.42 858.11,612.16 858.69,611.88
             858.69,611.88 860.23,613.47 860.23,613.47
             860.23,613.47 853.19,627.02 853.19,627.02
             853.19,627.02 850.64,626.17 850.64,626.17
             850.55,625.60 850.45,625.03 850.36,624.47
             850.27,623.91 849.84,623.34 849.09,622.78
             847.21,621.19 844.29,619.83 840.34,618.70
             836.39,617.57 831.98,617.00 827.09,617.00
             825.22,617.00 823.43,617.12 821.73,617.36
             820.05,617.59 818.54,617.99 817.22,618.56
             815.91,619.12 814.88,619.86 814.12,620.75
             813.38,621.65 813.00,622.75 813.00,624.06
             813.00,626.14 814.15,627.62 816.45,628.52
             818.75,629.41 821.64,630.12 825.12,630.64
             828.60,631.16 832.36,631.68 836.41,632.20
             840.45,632.71 844.21,633.59 847.69,634.81
             851.16,636.03 854.05,637.82 856.36,640.19
             858.66,642.54 859.81,645.79 859.81,649.94
             859.81,654.09 858.80,657.48 856.78,660.11
             854.76,662.75 852.24,664.82 849.23,666.33
             846.22,667.84 842.91,668.83 839.28,669.30
             835.66,669.77 832.26,670.00 829.06,670.00
             825.88,670.00 822.70,669.70 819.55,669.09
             816.40,668.48 813.53,667.78 810.94,666.98
             808.35,666.18 806.16,665.43 804.38,664.72
             802.59,664.01 801.52,663.66 801.14,663.66
             800.48,663.66 799.92,663.94 799.45,664.50
             799.45,664.50 797.48,663.09 797.48,663.09
             797.48,663.09 803.97,647.31 803.97,647.31
             803.97,647.31 806.66,648.02 806.66,648.02 Z
           M 992.09,611.11
           C 992.09,610.08 991.69,609.30 990.89,608.78
             990.09,608.26 988.70,608.00 986.73,608.00
             986.73,608.00 941.05,608.00 941.05,608.00
             941.05,608.00 941.05,626.00 941.05,626.00
             941.05,626.00 968.69,626.00 968.69,626.00
             970.56,626.00 972.02,625.81 973.05,625.44
             974.09,625.06 974.61,624.22 974.61,622.91
             974.61,622.91 977.14,622.91 977.14,622.91
             977.14,622.91 977.14,643.08 977.14,643.08
             977.14,643.08 974.61,643.08 974.61,643.08
             974.61,640.92 974.09,639.54 973.05,638.92
             972.02,638.31 970.56,638.00 968.69,638.00
             968.69,638.00 941.05,638.00 941.05,638.00
             941.05,638.00 941.05,664.98 941.05,664.98
             941.05,665.83 941.44,666.46 942.23,666.88
             943.04,667.29 944.05,667.50 945.28,667.50
             945.28,667.50 945.28,670.00 945.28,670.00
             945.28,670.00 921.31,670.00 921.31,670.00
             921.31,670.00 921.31,667.47 921.31,667.47
             923.75,667.47 924.97,666.62 924.97,664.94
             924.97,664.94 924.97,601.06 924.97,601.06
             924.97,599.38 923.75,598.53 921.31,598.53
             921.31,598.53 921.31,596.00 921.31,596.00
             921.31,596.00 986.73,596.00 986.73,596.00
             988.70,596.00 990.09,595.64 990.89,594.92
             991.69,594.20 992.09,593.22 992.09,592.00
             992.09,592.00 994.62,592.00 994.62,592.00
             994.62,592.00 994.62,611.11 994.62,611.11
             994.62,611.11 992.09,611.11 992.09,611.11 Z
           M 1047.64,635.00
           C 1056.85,635.00 1061.45,631.97 1061.45,625.91
             1061.45,623.47 1060.35,621.54 1058.14,620.12
             1055.93,618.71 1052.43,618.00 1047.64,618.00
             1047.64,618.00 1025.36,618.00 1025.36,618.00
             1025.36,618.00 1025.36,635.00 1025.36,635.00
             1025.36,635.00 1047.64,635.00 1047.64,635.00 Z
           M 1047.91,608.00
           C 1056.28,608.00 1062.82,609.39 1067.52,612.17
             1072.21,614.95 1074.56,619.70 1074.56,626.41
             1074.56,628.95 1074.09,631.21 1073.14,633.20
             1072.20,635.18 1070.96,636.91 1069.41,638.38
             1067.86,639.84 1066.15,641.01 1064.27,641.91
             1062.39,642.80 1060.46,643.48 1058.48,643.95
             1058.48,643.95 1072.31,663.98 1072.31,663.98
             1073.06,665.01 1073.88,665.78 1074.77,666.30
             1075.66,666.81 1076.63,667.20 1077.67,667.48
             1077.67,667.48 1077.67,670.00 1077.67,670.00
             1077.67,670.00 1056.09,670.00 1056.09,670.00
             1056.09,670.00 1056.09,667.44 1056.09,667.44
             1057.31,667.44 1057.92,667.02 1057.92,666.17
             1057.92,665.23 1057.22,663.76 1055.81,661.77
             1055.81,661.77 1044.67,645.00 1044.67,645.00
             1044.67,645.00 1025.08,645.00 1025.08,645.00
             1025.08,645.00 1025.08,665.31 1025.08,665.31
             1025.08,666.07 1025.38,666.62 1025.98,666.95
             1026.60,667.28 1027.19,667.44 1027.75,667.44
             1027.75,667.44 1027.75,670.00 1027.75,670.00
             1027.75,670.00 1009.00,670.00 1009.00,670.00
             1009.00,670.00 1009.00,667.47 1009.00,667.47
             1010.69,667.47 1011.53,666.76 1011.53,665.34
             1011.53,665.34 1011.53,612.66 1011.53,612.66
             1011.53,611.24 1010.69,610.53 1009.00,610.53
             1009.00,610.53 1009.00,608.00 1009.00,608.00
             1009.00,608.00 1047.91,608.00 1047.91,608.00 Z
           M 1114.59,610.55
           C 1112.53,610.55 1111.50,611.25 1111.50,612.66
             1111.50,612.66 1111.50,645.02 1111.50,645.02
             1111.50,649.54 1113.14,653.17 1116.42,655.91
             1119.71,658.64 1124.74,660.00 1131.52,660.00
             1138.29,660.00 1143.31,658.64 1146.59,655.91
             1149.88,653.17 1151.53,649.54 1151.53,645.02
             1151.53,645.02 1151.53,612.66 1151.53,612.66
             1151.53,611.25 1150.36,610.55 1148.02,610.55
             1148.02,610.55 1148.02,608.00 1148.02,608.00
             1148.02,608.00 1167.61,608.00 1167.61,608.00
             1167.61,608.00 1167.61,610.52 1167.61,610.52
             1165.55,610.52 1164.52,611.22 1164.52,612.62
             1164.52,612.62 1164.52,648.03 1164.52,648.03
             1164.52,650.92 1163.85,653.70 1162.53,656.36
             1161.22,659.02 1159.22,661.37 1156.55,663.42
             1153.87,665.48 1150.44,667.09 1146.25,668.25
             1142.07,669.42 1137.16,670.00 1131.52,670.00
             1125.87,670.00 1120.95,669.42 1116.77,668.25
             1112.59,667.09 1109.16,665.48 1106.48,663.42
             1103.80,661.37 1101.80,659.02 1100.48,656.36
             1099.17,653.70 1098.52,650.92 1098.52,648.03
             1098.52,648.03 1098.52,612.62 1098.52,612.62
             1098.52,611.88 1098.23,611.34 1097.67,611.02
             1097.11,610.68 1096.03,610.52 1094.44,610.52
             1094.44,610.52 1094.44,608.00 1094.44,608.00
             1094.44,608.00 1114.59,608.00 1114.59,608.00
             1114.59,608.00 1114.59,610.55 1114.59,610.55 Z
           M 1238.48,625.17
           C 1238.48,624.98 1238.46,624.80 1238.41,624.61
             1238.36,624.42 1238.34,624.19 1238.34,623.91
             1238.34,623.44 1237.88,622.81 1236.94,622.02
             1236.00,621.21 1234.66,620.44 1232.92,619.69
             1231.18,618.93 1229.13,618.29 1226.78,617.78
             1224.44,617.26 1221.85,617.00 1219.03,617.00
             1215.64,617.00 1212.57,617.45 1209.80,618.34
             1207.02,619.24 1204.60,620.59 1202.53,622.38
             1200.47,624.17 1198.87,626.39 1197.73,629.03
             1196.61,631.67 1196.05,634.68 1196.05,638.08
             1196.05,641.48 1196.68,644.52 1197.95,647.20
             1199.22,649.89 1200.89,652.20 1202.95,654.14
             1205.02,656.07 1207.38,657.53 1210.00,658.52
             1212.63,659.51 1215.32,660.00 1218.05,660.00
             1220.58,660.00 1223.16,659.67 1225.80,659.02
             1228.43,658.36 1230.83,657.59 1232.98,656.70
             1235.15,655.81 1236.91,654.84 1238.28,653.81
             1239.64,652.77 1240.33,651.83 1240.33,650.98
             1240.33,650.98 1240.33,649.86 1240.33,649.86
             1240.33,649.29 1240.28,648.81 1240.19,648.44
             1240.19,648.44 1241.73,647.03 1241.73,647.03
             1241.73,647.03 1252.17,661.97 1252.17,661.97
             1252.17,661.97 1250.75,662.67 1250.75,662.67
             1249.62,662.20 1248.83,661.97 1248.36,661.97
             1247.61,661.97 1246.38,662.39 1244.69,663.23
             1243.00,664.08 1240.86,665.04 1238.28,666.12
             1235.70,667.21 1232.69,668.12 1229.25,668.88
             1225.82,669.62 1221.99,670.00 1217.77,670.00
             1213.44,670.00 1209.16,669.40 1204.94,668.19
             1200.71,666.97 1196.95,665.03 1193.66,662.36
             1190.36,659.70 1187.68,656.37 1185.61,652.39
             1183.55,648.41 1182.52,643.80 1182.52,638.56
             1182.52,633.34 1183.55,628.76 1185.61,624.83
             1187.68,620.89 1190.41,617.59 1193.80,614.92
             1197.18,612.26 1201.05,610.27 1205.42,608.97
             1209.80,607.66 1214.29,607.00 1218.89,607.00
             1222.46,607.00 1225.73,607.31 1228.69,607.92
             1231.64,608.53 1234.25,609.22 1236.52,610.00
             1238.77,610.78 1240.66,611.48 1242.16,612.09
             1243.66,612.70 1244.73,613.00 1245.39,613.00
             1245.87,613.00 1246.27,612.86 1246.59,612.58
             1246.93,612.30 1247.28,612.06 1247.66,611.88
             1247.66,611.88 1249.34,612.86 1249.34,612.86
             1249.34,612.86 1240.05,626.31 1240.05,626.31
             1240.05,626.31 1238.48,625.17 1238.48,625.17 Z
           M 1284.06,665.34
           C 1284.06,666.09 1284.27,666.64 1284.69,666.97
             1285.11,667.29 1285.61,667.45 1286.17,667.45
             1286.17,667.45 1286.17,670.00 1286.17,670.00
             1286.17,670.00 1268.41,670.00 1268.41,670.00
             1268.41,670.00 1268.41,667.47 1268.41,667.47
             1268.97,667.47 1269.46,667.31 1269.88,666.98
             1270.30,666.65 1270.52,666.11 1270.52,665.34
             1270.52,665.34 1270.52,612.66 1270.52,612.66
             1270.52,611.90 1270.30,611.36 1269.88,611.03
             1269.46,610.70 1268.97,610.53 1268.41,610.53
             1268.41,610.53 1268.41,608.00 1268.41,608.00
             1268.41,608.00 1286.17,608.00 1286.17,608.00
             1286.17,608.00 1286.17,610.48 1286.17,610.48
             1285.61,610.48 1285.11,610.65 1284.69,610.97
             1284.27,611.29 1284.06,611.82 1284.06,612.55
             1284.06,612.55 1284.06,632.00 1284.06,632.00
             1284.06,632.00 1321.84,632.00 1321.84,632.00
             1321.84,632.00 1321.84,612.55 1321.84,612.55
             1321.84,611.82 1321.63,611.29 1321.20,610.97
             1320.79,610.65 1320.30,610.48 1319.73,610.48
             1319.73,610.48 1319.73,608.00 1319.73,608.00
             1319.73,608.00 1337.50,608.00 1337.50,608.00
             1337.50,608.00 1337.50,610.53 1337.50,610.53
             1336.94,610.53 1336.44,610.70 1336.02,611.03
             1335.60,611.36 1335.39,611.90 1335.39,612.66
             1335.39,612.66 1335.39,665.34 1335.39,665.34
             1335.39,666.11 1335.60,666.65 1336.02,666.98
             1336.44,667.31 1336.94,667.47 1337.50,667.47
             1337.50,667.47 1337.50,670.00 1337.50,670.00
             1337.50,670.00 1319.73,670.00 1319.73,670.00
             1319.73,670.00 1319.73,667.45 1319.73,667.45
             1320.30,667.45 1320.79,667.29 1321.20,666.97
             1321.63,666.64 1321.84,666.09 1321.84,665.34
             1321.84,665.34 1321.84,644.00 1321.84,644.00
             1321.84,644.00 1284.06,644.00 1284.06,644.00
             1284.06,644.00 1284.06,665.34 1284.06,665.34 Z
           M 1376.36,667.44
           C 1376.84,667.44 1377.31,667.28 1377.78,666.95
             1378.25,666.62 1378.48,666.07 1378.48,665.31
             1378.48,665.31 1378.48,618.00 1378.48,618.00
             1378.48,618.00 1360.16,618.00 1360.16,618.00
             1359.41,618.00 1358.70,618.19 1358.03,618.56
             1357.38,618.94 1357.05,619.55 1357.05,620.41
             1357.05,620.41 1354.52,620.41 1354.52,620.41
             1354.52,620.41 1354.52,605.00 1354.52,605.00
             1354.52,605.00 1357.05,605.00 1357.05,605.00
             1357.05,606.17 1357.38,606.96 1358.03,607.38
             1358.70,607.79 1359.41,608.00 1360.16,608.00
             1360.16,608.00 1410.34,608.00 1410.34,608.00
             1411.09,608.00 1411.80,607.79 1412.45,607.38
             1413.12,606.96 1413.45,606.17 1413.45,605.00
             1413.45,605.00 1415.98,605.00 1415.98,605.00
             1415.98,605.00 1415.98,620.41 1415.98,620.41
             1415.98,620.41 1413.45,620.41 1413.45,620.41
             1413.45,619.55 1413.12,618.94 1412.45,618.56
             1411.80,618.19 1411.09,618.00 1410.34,618.00
             1410.34,618.00 1392.02,618.00 1392.02,618.00
             1392.02,618.00 1392.02,665.31 1392.02,665.31
             1392.02,666.73 1392.86,667.44 1394.56,667.44
             1394.56,667.44 1394.56,670.00 1394.56,670.00
             1394.56,670.00 1376.36,670.00 1376.36,670.00
             1376.36,670.00 1376.36,667.44 1376.36,667.44 Z
           M 1485.98,620.69
           C 1485.98,618.90 1484.52,618.00 1481.61,618.00
             1481.61,618.00 1447.22,618.00 1447.22,618.00
             1447.22,618.00 1447.22,633.00 1447.22,633.00
             1447.22,633.00 1468.92,633.00 1468.92,633.00
             1470.52,633.00 1471.70,632.88 1472.45,632.64
             1473.20,632.40 1473.58,631.77 1473.58,630.73
             1473.58,630.73 1476.12,630.73 1476.12,630.73
             1476.12,630.73 1476.12,645.28 1476.12,645.28
             1476.12,645.28 1473.30,645.28 1473.30,645.28
             1473.58,644.24 1473.20,643.60 1472.17,643.36
             1471.14,643.12 1469.68,643.00 1467.80,643.00
             1467.80,643.00 1447.22,643.00 1447.22,643.00
             1447.22,643.00 1447.22,660.00 1447.22,660.00
             1447.22,660.00 1483.31,660.00 1483.31,660.00
             1484.44,660.00 1485.38,659.75 1486.12,659.23
             1486.88,658.71 1487.25,658.03 1487.25,657.19
             1487.25,657.19 1489.80,657.19 1489.80,657.19
             1489.80,657.19 1489.80,672.00 1489.80,672.00
             1489.80,672.00 1487.25,672.00 1487.25,672.00
             1487.25,670.91 1486.88,670.30 1486.12,670.17
             1485.38,670.05 1484.44,670.00 1483.31,670.00
             1483.31,670.00 1431.56,670.00 1431.56,670.00
             1431.56,670.00 1431.56,667.47 1431.56,667.47
             1432.03,667.47 1432.50,667.31 1432.97,666.98
             1433.44,666.65 1433.67,666.11 1433.67,665.34
             1433.67,665.34 1433.67,612.66 1433.67,612.66
             1433.67,611.90 1433.44,611.36 1432.97,611.03
             1432.50,610.70 1432.03,610.53 1431.56,610.53
             1431.56,610.53 1431.56,608.00 1431.56,608.00
             1431.56,608.00 1481.61,608.00 1481.61,608.00
             1484.52,608.00 1485.98,607.00 1485.98,605.00
             1485.98,605.00 1488.53,605.00 1488.53,605.00
             1488.53,605.00 1488.53,620.69 1488.53,620.69
             1488.53,620.69 1485.98,620.69 1485.98,620.69 Z
           M 1524.36,667.44
           C 1524.84,667.44 1525.31,667.28 1525.78,666.95
             1526.25,666.62 1526.48,666.07 1526.48,665.31
             1526.48,665.31 1526.48,618.00 1526.48,618.00
             1526.48,618.00 1508.16,618.00 1508.16,618.00
             1507.41,618.00 1506.70,618.19 1506.03,618.56
             1505.38,618.94 1505.05,619.55 1505.05,620.41
             1505.05,620.41 1502.52,620.41 1502.52,620.41
             1502.52,620.41 1502.52,605.00 1502.52,605.00
             1502.52,605.00 1505.05,605.00 1505.05,605.00
             1505.05,606.17 1505.38,606.96 1506.03,607.38
             1506.70,607.79 1507.41,608.00 1508.16,608.00
             1508.16,608.00 1558.34,608.00 1558.34,608.00
             1559.09,608.00 1559.80,607.79 1560.45,607.38
             1561.12,606.96 1561.45,606.17 1561.45,605.00
             1561.45,605.00 1563.98,605.00 1563.98,605.00
             1563.98,605.00 1563.98,620.41 1563.98,620.41
             1563.98,620.41 1561.45,620.41 1561.45,620.41
             1561.45,619.55 1561.12,618.94 1560.45,618.56
             1559.80,618.19 1559.09,618.00 1558.34,618.00
             1558.34,618.00 1540.02,618.00 1540.02,618.00
             1540.02,618.00 1540.02,665.31 1540.02,665.31
             1540.02,666.73 1540.86,667.44 1542.56,667.44
             1542.56,667.44 1542.56,670.00 1542.56,670.00
             1542.56,670.00 1524.36,670.00 1524.36,670.00
             1524.36,670.00 1524.36,667.44 1524.36,667.44 Z
           M 1603.11,595.69
           C 1601.70,596.06 1600.80,596.49 1600.42,596.97
             1600.05,597.44 1599.77,598.23 1599.58,599.36
             1599.58,599.36 1595.20,637.00 1595.20,637.00
             1595.11,637.76 1595.02,638.45 1594.92,639.06
             1594.83,639.67 1594.78,640.30 1594.78,640.95
             1594.78,641.70 1595.02,642.20 1595.48,642.44
             1595.96,642.67 1596.58,642.78 1597.33,642.78
             1597.33,642.78 1597.33,644.48 1597.33,644.48
             1597.33,644.48 1585.48,644.48 1585.48,644.48
             1585.48,644.48 1585.48,642.78 1585.48,642.78
             1586.23,642.78 1586.84,642.67 1587.31,642.44
             1587.79,642.20 1588.03,641.70 1588.03,640.95
             1588.03,640.30 1587.98,639.67 1587.89,639.06
             1587.80,638.45 1587.70,637.76 1587.61,637.00
             1587.61,637.00 1583.23,599.36 1583.23,599.36
             1583.05,598.23 1582.76,597.44 1582.38,596.97
             1582.00,596.49 1581.11,596.06 1579.70,595.69
             1579.70,595.69 1579.70,594.00 1579.70,594.00
             1579.70,594.00 1603.11,594.00 1603.11,594.00
             1603.11,594.00 1603.11,595.69 1603.11,595.69 Z
           M 1591.41,652.00
           C 1593.85,652.00 1595.97,652.91 1597.75,654.73
             1599.54,656.56 1600.44,658.72 1600.44,661.22
             1600.44,663.71 1599.54,665.80 1597.75,667.48
             1595.97,669.16 1593.85,670.00 1591.41,670.00
             1588.96,670.00 1586.84,669.16 1585.05,667.48
             1583.27,665.80 1582.38,663.71 1582.38,661.22
             1582.38,658.72 1583.27,656.56 1585.05,654.73
             1586.84,652.91 1588.96,652.00 1591.41,652.00 Z
           M 345.62,554.02
           C 350.38,551.98 370.54,553.00 377.00,553.06
             377.00,553.06 450.00,553.06 450.00,553.06
             450.00,553.06 703.00,553.06 703.00,553.06
             703.00,553.06 1619.00,553.06 1619.00,553.06
             1620.43,553.00 1623.59,552.94 1624.85,553.06
             1628.06,554.26 1628.12,557.20 1625.68,558.40
             1624.22,559.13 1620.70,559.00 1619.00,559.00
             1619.00,559.00 651.00,559.00 651.00,559.00
             651.00,559.00 418.00,559.00 418.00,559.00
             418.00,559.00 361.00,559.00 361.00,559.00
             357.52,559.00 341.17,561.02 345.62,554.02 Z
           M 518.25,497.00
           C 518.25,498.50 518.75,499.62 519.75,500.38
             520.75,501.12 521.91,501.50 523.25,501.50
             523.25,501.50 523.25,506.00 523.25,506.00
             523.25,506.00 484.25,506.00 484.25,506.00
             484.25,506.00 484.25,501.48 484.25,501.48
             487.91,501.48 489.75,499.98 489.75,496.97
             489.75,496.97 489.75,383.03 489.75,383.03
             489.75,380.02 487.91,378.52 484.25,378.52
             484.25,378.52 484.25,374.00 484.25,374.00
             484.25,374.00 523.25,374.00 523.25,374.00
             523.25,374.00 523.25,378.52 523.25,378.52
             521.91,378.52 520.75,378.90 519.75,379.66
             518.75,380.41 518.25,381.53 518.25,383.03
             518.25,383.03 518.25,430.72 518.25,430.72
             518.25,430.72 570.00,389.81 570.00,389.81
             572.33,387.80 574.16,386.17 575.50,384.92
             576.83,383.66 577.50,382.62 577.50,381.78
             577.50,380.61 577.12,379.77 576.38,379.27
             575.62,378.77 574.75,378.52 573.75,378.52
             573.75,378.52 573.75,374.00 573.75,374.00
             573.75,374.00 626.25,374.00 626.25,374.00
             626.25,374.00 626.25,378.52 626.25,378.52
             623.25,378.52 620.25,379.77 617.25,382.28
             617.25,382.28 559.75,428.20 559.75,428.20
             559.75,428.20 612.25,489.19 612.25,489.19
             614.41,491.70 616.96,494.17 619.88,496.59
             622.79,499.02 625.66,500.65 628.50,501.48
             628.50,501.48 628.50,506.00 628.50,506.00
             628.50,506.00 582.25,506.00 582.25,506.00
             582.25,506.00 582.25,501.50 582.25,501.50
             584.41,501.50 585.50,500.92 585.50,499.75
             585.50,498.92 584.33,497.09 582.00,494.25
             582.00,494.25 539.25,445.00 539.25,445.00
             539.25,445.00 518.25,461.25 518.25,461.25
             518.25,461.25 518.25,497.00 518.25,497.00 Z
           M 637.75,501.48
           C 642.08,501.48 644.25,499.98 644.25,496.97
             644.25,496.97 644.25,383.03 644.25,383.03
             644.25,380.02 642.08,378.52 637.75,378.52
             637.75,378.52 637.75,374.00 637.75,374.00
             637.75,374.00 679.25,374.00 679.25,374.00
             679.25,374.00 679.25,378.52 679.25,378.52
             674.91,378.52 672.75,380.02 672.75,383.03
             672.75,383.03 672.75,496.97 672.75,496.97
             672.75,499.98 674.91,501.48 679.25,501.48
             679.25,501.48 679.25,506.00 679.25,506.00
             679.25,506.00 637.75,506.00 637.75,506.00
             637.75,506.00 637.75,501.48 637.75,501.48 Z
           M 730.50,378.52
           C 728.00,378.52 726.75,380.11 726.75,383.28
             726.75,384.12 726.88,385.13 727.12,386.30
             727.38,387.46 728.00,389.39 729.00,392.06
             729.00,392.06 755.75,461.83 755.75,461.83
             755.75,461.83 756.25,461.83 756.25,461.83
             756.25,461.83 782.75,391.06 782.75,391.06
             783.58,388.89 784.12,387.26 784.38,386.17
             784.62,385.09 784.75,384.12 784.75,383.28
             784.75,380.11 783.66,378.52 781.50,378.52
             781.50,378.52 781.50,374.00 781.50,374.00
             781.50,374.00 824.25,374.00 824.25,374.00
             824.25,374.00 824.25,378.52 824.25,378.52
             823.08,378.52 822.25,378.94 821.75,379.78
             821.25,380.62 821.00,381.53 821.00,382.53
             821.00,384.21 821.83,387.05 823.50,391.06
             823.50,391.06 850.25,461.83 850.25,461.83
             850.25,461.83 850.75,461.83 850.75,461.83
             850.75,461.83 877.75,389.56 877.75,389.56
             878.91,387.05 879.50,384.79 879.50,382.78
             879.50,381.78 879.08,380.82 878.25,379.91
             877.41,378.98 876.41,378.52 875.25,378.52
             875.25,378.52 875.25,374.00 875.25,374.00
             875.25,374.00 912.25,374.00 912.25,374.00
             912.25,374.00 912.25,378.52 912.25,378.52
             910.41,378.52 909.04,379.52 908.12,381.53
             907.21,383.54 906.16,386.05 905.00,389.06
             905.00,389.06 869.00,484.92 869.00,484.92
             868.00,487.60 867.12,489.95 866.38,491.95
             865.62,493.95 865.25,495.62 865.25,496.97
             865.25,498.14 865.66,499.18 866.50,500.11
             867.33,501.03 868.50,501.48 870.00,501.48
             870.00,501.48 870.00,506.00 870.00,506.00
             870.00,506.00 830.50,506.00 830.50,506.00
             830.50,506.00 830.50,501.48 830.50,501.48
             831.50,501.15 832.54,500.65 833.62,499.98
             834.71,499.31 835.25,498.39 835.25,497.22
             835.25,495.88 834.96,494.37 834.38,492.70
             833.79,491.03 832.83,488.68 831.50,485.67
             831.50,485.67 802.75,411.64 802.75,411.64
             802.75,411.64 802.25,411.64 802.25,411.64
             802.25,411.64 775.00,484.17 775.00,484.17
             772.50,490.70 771.25,494.79 771.25,496.47
             771.25,499.15 772.33,500.82 774.50,501.48
             774.50,501.48 774.50,506.00 774.50,506.00
             774.50,506.00 735.75,506.00 735.75,506.00
             735.75,506.00 735.75,501.48 735.75,501.48
             736.75,501.48 737.75,501.23 738.75,500.73
             739.75,500.23 740.25,499.40 740.25,498.22
             740.25,496.89 739.96,495.47 739.38,493.97
             738.79,492.46 738.16,490.87 737.50,489.19
             737.50,489.19 697.50,385.55 697.50,385.55
             696.83,383.70 696.12,382.16 695.38,380.91
             694.62,379.65 693.41,378.85 691.75,378.52
             691.75,378.52 691.75,374.00 691.75,374.00
             691.75,374.00 730.50,374.00 730.50,374.00
             730.50,374.00 730.50,378.52 730.50,378.52 Z
           M 924.75,501.48
           C 929.08,501.48 931.25,499.98 931.25,496.97
             931.25,496.97 931.25,383.03 931.25,383.03
             931.25,380.02 929.08,378.52 924.75,378.52
             924.75,378.52 924.75,374.00 924.75,374.00
             924.75,374.00 966.25,374.00 966.25,374.00
             966.25,374.00 966.25,378.52 966.25,378.52
             961.91,378.52 959.75,380.02 959.75,383.03
             959.75,383.03 959.75,496.97 959.75,496.97
             959.75,499.98 961.91,501.48 966.25,501.48
             966.25,501.48 966.25,506.00 966.25,506.00
             966.25,506.00 924.75,506.00 924.75,506.00
             924.75,506.00 924.75,501.48 924.75,501.48 Z
           M 1131.25,488.45
           C 1130.75,488.45 1130.29,488.42 1129.88,488.34
             1129.46,488.26 1129.00,488.22 1128.50,488.22
             1127.50,488.22 1125.12,489.21 1121.38,491.19
             1117.62,493.16 1112.88,495.38 1107.12,497.86
             1101.38,500.33 1094.83,502.47 1087.50,504.28
             1080.16,506.09 1072.50,507.00 1064.50,507.00
             1054.00,507.00 1043.91,505.67 1034.25,503.00
             1024.58,500.32 1016.04,496.19 1008.62,490.59
             1001.21,485.00 995.33,478.03 991.00,469.69
             986.66,461.34 984.50,451.56 984.50,440.38
             984.50,429.36 986.66,419.63 991.00,411.20
             995.33,402.77 1001.21,395.71 1008.62,390.03
             1016.04,384.36 1024.58,380.10 1034.25,377.27
             1043.91,374.42 1054.00,373.00 1064.50,373.00
             1073.00,373.00 1080.71,373.68 1087.62,375.05
             1094.54,376.41 1100.58,377.87 1105.75,379.41
             1110.91,380.94 1115.00,382.39 1118.00,383.75
             1121.00,385.12 1122.83,385.80 1123.50,385.80
             1124.33,385.80 1125.04,385.37 1125.62,384.52
             1126.21,383.66 1126.66,382.98 1127.00,382.47
             1127.00,382.47 1130.75,385.53 1130.75,385.53
             1130.75,385.53 1111.25,416.00 1111.25,416.00
             1111.25,416.00 1108.75,414.25 1108.75,414.25
             1108.75,413.75 1108.71,413.25 1108.62,412.75
             1108.54,412.25 1108.41,411.67 1108.25,411.00
             1107.91,409.17 1106.25,407.29 1103.25,405.38
             1100.25,403.46 1096.54,401.75 1092.12,400.25
             1087.71,398.75 1083.04,397.50 1078.12,396.50
             1073.21,395.50 1068.66,395.00 1064.50,395.00
             1057.50,395.00 1050.79,396.00 1044.38,398.00
             1037.96,400.00 1032.38,402.92 1027.62,406.75
             1022.88,410.59 1019.08,415.29 1016.25,420.88
             1013.41,426.46 1012.00,432.84 1012.00,440.00
             1012.00,447.17 1013.41,453.54 1016.25,459.12
             1019.08,464.71 1022.88,469.42 1027.62,473.25
             1032.38,477.09 1037.96,480.00 1044.38,482.00
             1050.79,484.00 1057.50,485.00 1064.50,485.00
             1069.83,485.00 1075.41,484.38 1081.25,483.12
             1087.08,481.88 1092.41,480.29 1097.25,478.38
             1102.08,476.46 1106.12,474.29 1109.38,471.88
             1112.62,469.46 1114.25,467.17 1114.25,465.00
             1114.25,463.84 1113.91,462.84 1113.25,462.00
             1113.25,462.00 1116.75,460.00 1116.75,460.00
             1116.75,460.00 1133.25,486.48 1133.25,486.48
             1133.25,486.48 1131.25,488.45 1131.25,488.45 Z
           M 1233.25,396.00
           C 1226.91,396.00 1220.58,397.01 1214.25,399.02
             1207.91,401.03 1202.21,403.92 1197.12,407.69
             1192.04,411.46 1187.91,416.11 1184.75,421.64
             1181.58,427.17 1180.00,433.46 1180.00,440.50
             1180.00,447.54 1181.58,453.83 1184.75,459.36
             1187.91,464.89 1192.04,469.54 1197.12,473.31
             1202.21,477.09 1207.91,479.98 1214.25,481.98
             1220.58,484.00 1226.91,485.00 1233.25,485.00
             1239.58,485.00 1245.91,484.00 1252.25,481.98
             1258.58,479.98 1264.29,477.09 1269.38,473.31
             1274.46,469.54 1278.58,464.89 1281.75,459.36
             1284.91,453.83 1286.50,447.54 1286.50,440.50
             1286.50,433.46 1284.91,427.17 1281.75,421.64
             1278.58,416.11 1274.46,411.46 1269.38,407.69
             1264.29,403.92 1258.58,401.03 1252.25,399.02
             1245.91,397.01 1239.58,396.00 1233.25,396.00 Z
           M 1233.25,373.00
           C 1242.41,373.00 1251.75,374.38 1261.25,377.14
             1270.75,379.89 1279.41,384.02 1287.25,389.53
             1295.08,395.04 1301.50,402.02 1306.50,410.45
             1311.50,418.88 1314.00,428.86 1314.00,440.38
             1314.00,451.90 1311.50,461.88 1306.50,470.31
             1301.50,478.74 1295.08,485.71 1287.25,491.22
             1279.41,496.73 1270.75,500.74 1261.25,503.25
             1251.75,505.75 1242.41,507.00 1233.25,507.00
             1224.08,507.00 1214.75,505.75 1205.25,503.25
             1195.75,500.74 1187.08,496.73 1179.25,491.22
             1171.41,485.71 1165.00,478.74 1160.00,470.31
             1155.00,461.88 1152.50,451.90 1152.50,440.38
             1152.50,428.86 1155.00,418.88 1160.00,410.45
             1165.00,402.02 1171.41,395.04 1179.25,389.53
             1187.08,384.02 1195.75,379.89 1205.25,377.14
             1214.75,374.38 1224.08,373.00 1233.25,373.00 Z
           M 1337.75,501.48
           C 1340.91,501.48 1342.50,499.98 1342.50,496.97
             1342.50,496.97 1342.50,383.03 1342.50,383.03
             1342.50,380.02 1340.91,378.52 1337.75,378.52
             1337.75,378.52 1337.75,374.00 1337.75,374.00
             1337.75,374.00 1380.50,374.00 1380.50,374.00
             1380.50,374.00 1380.50,378.52 1380.50,378.52
             1379.16,378.52 1378.50,379.36 1378.50,381.03
             1378.50,382.37 1380.16,384.70 1383.50,388.05
             1383.50,388.05 1455.25,462.84 1455.25,462.84
             1455.25,462.84 1455.25,383.03 1455.25,383.03
             1455.25,380.02 1453.08,378.52 1448.75,378.52
             1448.75,378.52 1448.75,374.00 1448.75,374.00
             1448.75,374.00 1486.50,374.00 1486.50,374.00
             1486.50,374.00 1486.50,378.52 1486.50,378.52
             1483.33,378.52 1481.75,380.02 1481.75,383.03
             1481.75,383.03 1481.75,496.97 1481.75,496.97
             1481.75,499.98 1483.33,501.48 1486.50,501.48
             1486.50,501.48 1486.50,506.00 1486.50,506.00
             1486.50,506.00 1446.00,506.00 1446.00,506.00
             1446.00,506.00 1446.00,501.48 1446.00,501.48
             1448.16,501.48 1449.25,500.73 1449.25,499.22
             1449.25,498.05 1447.91,496.13 1445.25,493.45
             1445.25,493.45 1369.00,413.66 1369.00,413.66
             1369.00,413.66 1369.00,496.97 1369.00,496.97
             1369.00,499.98 1370.91,501.48 1374.75,501.48
             1374.75,501.48 1374.75,506.00 1374.75,506.00
             1374.75,506.00 1337.75,506.00 1337.75,506.00
             1337.75,506.00 1337.75,501.48 1337.75,501.48 Z" />
</svg>
