<svg xmlns="http://www.w3.org/2000/svg" viewBox="0 0 397 397"><defs><style>.cls-1{fill:#b5b5b5;}.cls-2{fill:#e0cfb4;}.cls-3{fill:#fceacc;}.cls-4{fill:#919951;}.cls-5{fill:#bec76b;}.cls-6{fill:#261f14;}</style></defs><g id="Ebene_10" data-name="Ebene 10"><circle class="cls-1" cx="198.5" cy="198.5" r="198.5"/></g><g id="Ebene_3" data-name="Ebene 3"><g id="Ebene_7" data-name="Ebene 7"><rect class="cls-2" x="180.35" y="182.72" width="34" height="38.26" rx="3.69"/></g><ellipse class="cls-3" cx="198.5" cy="121.31" rx="59" ry="73.08"/></g><g id="Ebene_11" data-name="Ebene 11"><path class="cls-4" d="M241,328.54c0-53.54,14.91-55.64,28.61-56.29,51.76-2.45,25.67,2.75,25.67,56.29s-1,105-14.73,105S241,382.08,241,328.54Z" transform="translate(-131.1 -60.43)"/><path class="cls-4" d="M414.73,328.54c0-53.54-14.91-55.64-28.61-56.29-51.76-2.45-25.67,2.75-25.67,56.29s1,105,14.73,105S414.73,382.08,414.73,328.54Z" transform="translate(-131.1 -60.43)"/></g><g id="Ebene_13" data-name="Ebene 13"><path class="cls-5" d="M267.6,421V300.56a28.79,28.79,0,0,1,28.79-28.79h66.42a28.79,28.79,0,0,1,28.79,28.79V421c0,15.9-7.63,30.41-25.29,32.79,0,0-23.4,4.44-36.71,3.54-13.62.71-34.46-2.54-34.46-2.54C279.05,453.68,267.6,436.88,267.6,421Z" transform="translate(-131.1 -60.43)"/></g><g id="Ebene_9" data-name="Ebene 9"><path class="cls-6" d="M327.26,108.66c24.11,0,33.66-.18,49.21,12,13.68,10.67,16.73,54,9.38,76.41-2.05,6.22-6.7-35.52-25.19-45.83-19.15-10.68-45.19-6.12-57.93-1.86-24.94,8.34-22.35,71.85-27.46,54.23-9.23-31.77-7.42-69.94,9.33-82.42C300.9,109,309.15,108.66,327.26,108.66Z" transform="translate(-131.1 -60.43)"/></g><g id="Ebene_12" data-name="Ebene 12"><ellipse class="cls-3" cx="386.66" cy="191.75" rx="15.3" ry="9" transform="translate(-57.92 427.98) rotate(-69.8)"/><ellipse class="cls-3" cx="273.32" cy="193.39" rx="8" ry="15.33" transform="translate(-182.11 49.82) rotate(-20.9)"/></g><g id="Ebene_15" data-name="Ebene 15"><ellipse class="cls-6" cx="149.09" cy="119.07" rx="3.5" ry="18.75"/><ellipse class="cls-6" cx="252.06" cy="120.7" rx="3.5" ry="18.75"/></g></svg>