<?xml version="1.0" encoding="utf-8"?>
<!-- Generator: Adobe Adobe Illustrator 24.2.0, SVG Export Plug-In . SVG Version: 6.00 Build 0)  -->
<svg version="1.1" xmlns="http://www.w3.org/2000/svg" xmlns:xlink="http://www.w3.org/1999/xlink" x="0px" y="0px" width="480px"
	 height="640px" viewBox="0 0 480 640" style="enable-background:new 0 0 480 640;" xml:space="preserve">
<style type="text/css">
	.st0{fill:#EB5D47;}
	.st1{fill:#8F0007;}
	.st2{fill:#6F6F6F;}
	.st3{fill:#6A703B;}
	.st4{fill:#919951;}
	.st5{fill:#424242;}
	.st6{fill:#BEC76B;}
	.st7{fill:#FCEACC;}
	.st8{fill:#F2E8CF;}
	.st9{fill:#E3D8BC;}
	.st10{opacity:0.9098;fill:#8D944E;}
	.st11{fill:#4A3D28;}
	.st12{fill:#696969;}
	.st13{fill:#70040C;}
	.st14{opacity:0.9608;fill:#696969;}
</style>
<g id="Ebene_18">
	<rect x="93.02" y="160.1" class="st0" width="17.61" height="52"/>
	<g id="Ebene_22">
		<polygon class="st1" points="110.62,160.1 93.02,212.1 110.62,212.1 		"/>
	</g>
	<rect x="112.84" y="170.49" class="st2" width="24" height="41.61"/>
	<g id="Ebene_17">
		<path class="st2" d="M50.34,217.44v-2.92c0-1.17,0.95-2.13,2.13-2.13h144.75c1.17,0,2.13,0.95,2.13,2.13v2.92
			c0,1.17-0.95,2.13-2.13,2.13H52.47C51.3,219.56,50.34,218.61,50.34,217.44z"/>
	</g>
	<g id="Ebene_23">
		<polygon class="st3" points="90.08,152.87 79.68,212.1 90.08,212.1 		"/>
		<g id="Ebene_27">
			<rect x="79.38" y="146.17" class="st4" width="11" height="65.93"/>
			<polygon class="st3" points="90.38,146.17 79.68,212.1 91.52,212.1 			"/>
		</g>
	</g>
	<g id="Ebene_4">
		<polygon class="st5" points="136.84,170.49 112.84,212.1 136.84,212.1 		"/>
	</g>
</g>
<g id="Ebene_26">
	<rect x="147.27" y="190.58" class="st6" width="43.8" height="21.52"/>
	<rect x="144.72" y="186.1" class="st4" width="48.9" height="5.18"/>
	<path d="M161.83,196.73v-0.6c0-1.27,1.03-2.29,2.29-2.29h10.09c1.27,0,2.29,1.03,2.29,2.29v0.6c0,1.27-1.03,2.29-2.29,2.29h-10.09
		C162.86,199.03,161.83,198,161.83,196.73z"/>
</g>
<g id="Ebene_10">
	<path class="st7" d="M173.22,337.43l2.3-2.16c0.33-0.31,0.76-0.5,1.21-0.53l15.64-1.27c1.16-0.09,2.16,0.83,2.16,1.99v3.43
		c0,1.1-0.9,2-2,2h-17.94C172.78,340.89,171.9,338.67,173.22,337.43z"/>
</g>
<g id="Ebene_3">
	<path class="st7" d="M211.03,247.74c-3.19-14.17-2.49-26.89,12.84-30.33s30.35,5.24,33.54,19.41c3.19,14.17-8.09,25.6-22,31.91
		C213.33,278.73,214.22,261.91,211.03,247.74z"/>
	<g id="Ebene_7">
		<polygon class="st7" points="234.89,274.41 233.73,268.79 249.39,260.2 249.89,274.41 		"/>
	</g>
</g>
<g id="Ebene_14">
	<path class="st7" d="M134.18,463.79L134.18,463.79c0.08-2.86,1.6-5.48,4.03-6.97l33.38-23.36c0,0,1.51,27-3.54,29.5
		c-5.24,2.6-21.29,4.36-29.32,5.1C136.23,468.29,134.11,466.29,134.18,463.79z"/>
	<path class="st7" d="M190.7,470.57L190.7,470.57c0.07-3.01,1.36-5.77,3.43-7.33l6.96-5.33l4.56-7.12l10.77-4.45
		c0,0,5.85,18.11,1.57,20.74c-4.45,2.73-16.6,7.21-23.42,8C192.45,475.3,190.65,473.2,190.7,470.57z"/>
</g>
<g id="Ebene_11">
	<path class="st8" d="M163.75,449.87L163.75,449.87c-3.91-1.49-5.96-5.68-4.7-9.64l19.61-61.82c0.25-0.78,0.61-1.51,1.08-2.18
		l3.23-4.58c0.93-1.32,2.24-2.33,3.75-2.92l46-20.89c6.58-3.05,31.68-7.9,32.14-2.66c0,0,1.03,8.37,1,10.47
		c-0.04,2.32,1.63,4.13-3.34,10.97c-1.07,1.47-1.79,2.54-12.16,6.01c-6.47,2.16-13.58,3.66-15.38,4.26l-19.95,6.67
		c-0.34,0.11-12.44,5.95-12.44,5.95c-1.69,0.82-3.05,2.18-3.84,3.86l-24.63,52.36C172.32,449.57,167.76,451.39,163.75,449.87z"/>
	<path class="st8" d="M185.65,376.59l-1.43-6.91c-0.66-3.2,1.4-6.34,4.6-7l21.2-4.39c3.2-0.66,6.34,1.4,7,4.6l1.43,6.91
		c0.66,3.2-1.4,6.34-4.6,7l-21.2,4.39C189.44,381.85,186.31,379.79,185.65,376.59z"/>
	<polygon class="st8" points="205.95,450.77 188.08,388.54 206,380.22 217.77,450.65 	"/>
	<g id="Ebene_19">
		<path class="st9" d="M206.41,455.38c0,0-2.31-9.54-3.26-12.67c-4.03-13.22-4.21-15.19-5.94-19.99c-3.5-9.69-2.08-10.3-2.45-13.78
			c-0.96-9.03,0-18.01,0-18.01l12.32-4.33l5.53,28.89l2.66,17.96c0,0,2.83,15.03,2.49,19.57
			C217.56,455.91,206.41,455.38,206.41,455.38z"/>
	</g>
</g>
<g id="Ebene_8">
	<path class="st6" d="M231.78,347.22c0,0,0.94-23.18-1.21-30.66c-1.11-3.89-6.91-11.76-5.71-15.76c1.7-5.69,6.35-13.01,7.61-17.23
		c2.93-9.83,3.18-10.4,3.18-10.4h14.48c0,0,2.35,6.76,2.97,8.52c3.12,8.89,4.32,10.83,5.37,14.98c1.68,6.63,2.3,11.76,4.7,25.41
		c0.67,3.81,2.06,33.46,0.21,34.73C257.33,360.97,231.78,347.22,231.78,347.22z"/>
	<g id="Ebene_24">
		<path class="st10" d="M259.11,302.67c-3.29,19.94-3.1,36.85-15.5,49.25c-1.11,1.11,5.69,3.32,7.75,3.99
			c2.05,0.66,3.86,1.68,11.74,1.26c1.81-0.1,2.5-7.38,2.23-8.82c-0.7-3.74-1.22-11.1-1.5-15.21c-0.22-3.21-0.04-5.07-0.25-6.76
			C262.58,318.33,259.69,299.17,259.11,302.67z"/>
	</g>
</g>
<g id="Ebene_9">
	<polygon class="st6" points="192.25,341.89 192.25,333.89 232.56,313.89 235.73,329.39 	"/>
</g>
<g id="Ebene_5">
	<path class="st11" d="M209.62,231.32c-1.29-13.7,27.18-20.33,38.96-11.49c17.43,13.09,5.92,47.5-0.26,39.05
		c-7.36-10.06,1.34-25.94-15.03-10.76C223.16,257.51,210.17,237.22,209.62,231.32z"/>
	<g id="Ebene_6">
		
			<ellipse transform="matrix(0.617 -0.7869 0.7869 0.617 -76.7845 281.3439)" class="st11" cx="250.67" cy="219.56" rx="10.62" ry="15.5"/>
	</g>
</g>
<g id="Ebene_13">
	<g id="Ebene_15">
		<path class="st12" d="M294.02,485.61l-18.66-90.09c-0.34-1.62,0.71-3.21,2.33-3.55l0,0c1.62-0.34,3.21,0.71,3.55,2.33l18.66,90.09
			c0.34,1.62-0.71,3.21-2.33,3.55l0,0C295.95,488.27,294.36,487.23,294.02,485.61z"/>
		<path class="st12" d="M199.37,485.58l19.04-90.01c0.34-1.62-0.69-3.21-2.31-3.56h0c-1.62-0.34-3.21,0.69-3.56,2.31l-19.04,90.01
			c-0.34,1.62,0.69,3.21,2.31,3.56l0,0C197.43,488.24,199.03,487.2,199.37,485.58z"/>
	</g>
	<path class="st1" d="M210.78,396.76c-1.48-7.17-2.5-10.87,0-12.92c6.11-5.02,21-7.87,27.93-10.66c5.25-2.11,20.86-8.79,20.86-8.79
		l7.56-37.5l4.94-32.78l3.56-13.75c0-3.31,2.69-6,6-6l0,0c3.31,0,6,2.69,6,6l-1,99.87c0,3.31,1.26,15.23-5.75,17.79l-11.5,0.5
		C266.07,398.51,211.45,400,210.78,396.76z"/>
	<g id="Ebene_20">
		<path class="st13" d="M287.13,327.89l-33.74,70.97l19.19-0.38c11.09,1.38,14.97-5.04,15.05-11.87L287.13,327.89z"/>
	</g>
</g>
<g id="Ebene_16">
	<rect x="92.45" y="346" class="st1" width="104.54" height="140.96"/>
	<g id="Ebene_21">
		<polygon class="st13" points="196.99,348.14 92.45,348.14 196.99,388.83 		"/>
	</g>
	<path class="st0" d="M79.86,344.69v-0.35c0-1.91,1.55-3.45,3.45-3.45h122.81c1.91,0,3.45,1.55,3.45,3.45v0.35
		c0,1.91-1.55,3.45-3.45,3.45H83.31C81.41,348.14,79.86,346.6,79.86,344.69z"/>
</g>
<g id="Ebene_12">
	<path d="M95.67,339.79l4.97-49.88c0.11-1.1,1.67-1.23,1.96-0.16l1.56,5.72c0.01,0.04,0.02,0.08,0.03,0.12l6.33,44.16
		c0.09,0.6-0.38,1.14-0.99,1.14H96.67C96.08,340.89,95.61,340.38,95.67,339.79z"/>
	<path class="st14" d="M115.85,332.29l-26.69-73.81l1.88-0.68c2.6-0.94,5.46,0.4,6.4,3l23.29,64.41c0.94,2.6-0.4,5.46-3,6.4
		L115.85,332.29z"/>
</g>
<g id="Ebene_25">
	<path class="st3" d="M91.39,354.08c0,0-5.31,25.37-7.19,33.77c-5.82,25.9-3.51,53.51-3.51,53.51c-0.7,5.69,1.41,10.33,4.42,9.76h0
		c6.57-1.25,15.24-1.18,13.94-18.28c0,0,1.48-28.11-0.44-53.36c-0.54-7.15-5.83-25.66-5.83-25.66
		C92.71,352.37,91.58,352.58,91.39,354.08z"/>
	<path class="st4" d="M105.06,378.23c0,0,2.57,25.79,3.54,34.34c3.02,26.37-2.22,53.58-2.22,53.58c0.09,5.73-2.5,10.12-5.44,9.23h0
		c-6.4-1.94-15.03-2.81-11.91-19.67c0,0,1.53-28.11,6.14-53.01c1.3-7.05,8.54-24.89,8.54-24.89
		C103.94,376.38,105.04,376.72,105.06,378.23z"/>
	<path class="st4" d="M80,373.71c0,0-2.57,25.79-3.54,34.34c-3.02,26.37,2.22,53.58,2.22,53.58c-0.09,5.73,2.5,10.12,5.44,9.23h0
		c6.4-1.94,15.03-2.81,11.91-19.67c0,0-1.53-28.11-6.14-53.01c-1.3-7.05-8.54-24.89-8.54-24.89C81.12,371.87,80.03,372.2,80,373.71z
		"/>
	<path class="st6" d="M71.11,401.44c0,0-1.15,16.37-1.64,21.79c-1.53,16.72,4.41,34.34,4.41,34.34c0.18,3.66,2.71,6.58,5.31,6.15h0
		c5.67-0.95,13.39-1.12,9.83-12.03c0,0-2.64-18.03-7.91-34.15c-1.49-4.57-8.8-16.29-8.8-16.29
		C72.03,400.31,71.06,400.47,71.11,401.44z"/>
	<path class="st6" d="M115.27,402.82c0,0,1.15,16.37,1.64,21.79c1.53,16.72-4.41,34.34-4.41,34.34c-0.18,3.66-2.71,6.58-5.31,6.15h0
		c-5.67-0.95-13.39-1.12-9.83-12.03c0,0,2.64-18.03,7.91-34.15c1.49-4.57,8.8-16.29,8.8-16.29
		C114.35,401.69,115.32,401.86,115.27,402.82z"/>
	<path class="st8" d="M72.28,490.3v-26.17c0-0.2,0.17-0.37,0.37-0.37h41.64c0.2,0,0.37,0.17,0.37,0.37v27.66
		c0,5.51-4.47,9.98-9.98,9.98H83.73C77.41,501.75,72.28,496.62,72.28,490.3z"/>
	<path class="st0" d="M69.22,461.75v-3.5c0-1.1,0.9-2,2-2h44.5c1.1,0,2,0.9,2,2v3.5c0,1.1-0.9,2-2,2h-44.5
		C70.11,463.75,69.22,462.86,69.22,461.75z"/>
</g>
</svg>
